<?xml version="1.0" encoding="utf-8" standalone="no"?>
<!DOCTYPE svg PUBLIC "-//W3C//DTD SVG 1.1//EN"
  "http://www.w3.org/Graphics/SVG/1.1/DTD/svg11.dtd">
<svg xmlns:xlink="http://www.w3.org/1999/xlink" width="460.8pt" height="345.6pt" viewBox="0 0 460.8 345.6" xmlns="http://www.w3.org/2000/svg" version="1.1">
 <metadata>
  <rdf:RDF xmlns:dc="http://purl.org/dc/elements/1.1/" xmlns:cc="http://creativecommons.org/ns#" xmlns:rdf="http://www.w3.org/1999/02/22-rdf-syntax-ns#">
   <cc:Work>
    <dc:type rdf:resource="http://purl.org/dc/dcmitype/StillImage"/>
    <dc:date>2023-01-05T10:46:14.930676</dc:date>
    <dc:format>image/svg+xml</dc:format>
    <dc:creator>
     <cc:Agent>
      <dc:title>Matplotlib v3.5.3, https://matplotlib.org/</dc:title>
     </cc:Agent>
    </dc:creator>
   </cc:Work>
  </rdf:RDF>
 </metadata>
 <defs>
  <style type="text/css">*{stroke-linejoin: round; stroke-linecap: butt}</style>
 </defs>
 <g id="figure_1">
  <g id="patch_1">
   <path d="M 0 345.6 
L 460.8 345.6 
L 460.8 0 
L 0 0 
z
" style="fill: #ffffff"/>
  </g>
  <g id="axes_1">
   <g id="patch_2">
    <path d="M 57.6 307.584 
L 414.72 307.584 
L 414.72 41.472 
L 57.6 41.472 
z
" style="fill: #ffffff"/>
   </g>
   <g id="matplotlib.axis_1">
    <g id="xtick_1">
     <g id="line2d_1">
      <defs>
       <path id="mbc051812b2" d="M 0 0 
L 0 -3.5 
" style="stroke: #000000; stroke-width: 0.8"/>
      </defs>
      <g>
       <use xlink:href="#mbc051812b2" x="73.832727" y="307.584" style="stroke: #000000; stroke-width: 0.8"/>
      </g>
     </g>
     <g id="text_1">
      <!-- -5 -->
      <g transform="translate(68.84054 319.42775)scale(0.12 -0.12)">
       <defs>
        <path id="SimSun-2d" d="M 250 1675 
L 1875 1675 
L 1875 1200 
L 250 1200 
L 250 1675 
z
" transform="scale(0.015625)"/>
        <path id="SimSun-35" d="M 2775 4250 
L 2525 3700 
L 1250 3700 
L 975 3150 
Q 1800 3025 2300 2525 
Q 2700 2100 2700 1525 
Q 2700 1200 2575 912 
Q 2450 625 2237 425 
Q 2025 225 1775 100 
Q 1425 -75 1025 -75 
Q 650 -75 475 50 
Q 300 175 300 350 
Q 300 425 375 500 
Q 450 575 550 575 
Q 650 575 712 550 
Q 775 525 900 400 
Q 1150 250 1375 250 
Q 1750 250 2025 525 
Q 2300 800 2300 1200 
Q 2300 1575 2050 1912 
Q 1800 2250 1375 2425 
Q 1025 2575 450 2600 
L 1250 4250 
L 2775 4250 
z
" transform="scale(0.015625)"/>
       </defs>
       <use xlink:href="#SimSun-2d"/>
       <use xlink:href="#SimSun-35" x="33.203125"/>
      </g>
     </g>
    </g>
    <g id="xtick_2">
     <g id="line2d_2">
      <g>
       <use xlink:href="#mbc051812b2" x="144.409802" y="307.584" style="stroke: #000000; stroke-width: 0.8"/>
      </g>
     </g>
     <g id="text_2">
      <!-- 0 -->
      <g transform="translate(141.409802 319.42775)scale(0.12 -0.12)">
       <defs>
        <path id="SimSun-30" d="M 225 2100 
Q 225 2825 450 3350 
Q 675 3875 1025 4125 
Q 1325 4325 1625 4325 
Q 2100 4325 2500 3825 
Q 2975 3225 2975 2150 
Q 2975 1425 2762 912 
Q 2550 400 2225 162 
Q 1900 -75 1575 -75 
Q 975 -75 575 650 
Q 225 1250 225 2100 
z
M 850 2025 
Q 850 1150 1050 600 
Q 1250 125 1600 125 
Q 1750 125 1937 275 
Q 2125 425 2225 775 
Q 2350 1325 2350 2300 
Q 2350 3025 2200 3500 
Q 2100 3875 1925 4025 
Q 1800 4125 1600 4125 
Q 1400 4125 1225 3925 
Q 1000 3675 925 3112 
Q 850 2550 850 2025 
z
" transform="scale(0.015625)"/>
       </defs>
       <use xlink:href="#SimSun-30"/>
      </g>
     </g>
    </g>
    <g id="xtick_3">
     <g id="line2d_3">
      <g>
       <use xlink:href="#mbc051812b2" x="214.986877" y="307.584" style="stroke: #000000; stroke-width: 0.8"/>
      </g>
     </g>
     <g id="text_3">
      <!-- 5 -->
      <g transform="translate(211.986877 319.42775)scale(0.12 -0.12)">
       <use xlink:href="#SimSun-35"/>
      </g>
     </g>
    </g>
    <g id="xtick_4">
     <g id="line2d_4">
      <g>
       <use xlink:href="#mbc051812b2" x="285.563953" y="307.584" style="stroke: #000000; stroke-width: 0.8"/>
      </g>
     </g>
     <g id="text_4">
      <!-- 10 -->
      <g transform="translate(279.563953 319.42775)scale(0.12 -0.12)">
       <defs>
        <path id="SimSun-31" d="M 750 3825 
L 1775 4325 
L 1875 4325 
L 1875 750 
Q 1875 400 1912 312 
Q 1950 225 2037 175 
Q 2125 125 2425 125 
L 2425 0 
L 825 0 
L 825 125 
Q 1125 125 1212 175 
Q 1300 225 1337 300 
Q 1375 375 1375 750 
L 1375 3025 
Q 1375 3500 1350 3625 
Q 1325 3725 1262 3775 
Q 1200 3825 1125 3825 
Q 1000 3825 800 3725 
L 750 3825 
z
" transform="scale(0.015625)"/>
       </defs>
       <use xlink:href="#SimSun-31"/>
       <use xlink:href="#SimSun-30" x="50"/>
      </g>
     </g>
    </g>
    <g id="xtick_5">
     <g id="line2d_5">
      <g>
       <use xlink:href="#mbc051812b2" x="356.141028" y="307.584" style="stroke: #000000; stroke-width: 0.8"/>
      </g>
     </g>
     <g id="text_5">
      <!-- 15 -->
      <g transform="translate(350.141028 319.42775)scale(0.12 -0.12)">
       <use xlink:href="#SimSun-31"/>
       <use xlink:href="#SimSun-35" x="50"/>
      </g>
     </g>
    </g>
    <g id="text_6">
     <!-- Angle of Attack ($\mathrm{°}$) -->
     <g transform="translate(189.6 334.405875)scale(0.12 -0.12)">
      <defs>
       <path id="SimSun-41" d="M 2925 1425 
L 1300 1425 
L 1000 750 
Q 900 500 900 375 
Q 900 275 987 212 
Q 1075 150 1375 125 
L 1375 0 
L 50 0 
L 50 125 
Q 325 175 400 250 
Q 550 400 750 850 
L 2250 4325 
L 2350 4325 
L 3825 800 
Q 4000 375 4150 250 
Q 4300 125 4550 125 
L 4550 0 
L 2875 0 
L 2875 125 
Q 3125 125 3212 200 
Q 3300 275 3300 375 
Q 3300 525 3175 800 
L 2925 1425 
z
M 2850 1650 
L 2125 3375 
L 1375 1650 
L 2850 1650 
z
" transform="scale(0.015625)"/>
       <path id="SimSun-6e" d="M 1025 2350 
Q 1550 2950 2000 2950 
Q 2225 2950 2400 2837 
Q 2575 2725 2675 2450 
Q 2725 2250 2725 1875 
L 2725 650 
Q 2725 375 2775 275 
Q 2825 200 2900 162 
Q 2975 125 3175 125 
L 3175 0 
L 1750 0 
L 1750 125 
L 1825 125 
Q 2025 125 2100 175 
Q 2175 225 2200 350 
Q 2225 400 2225 650 
L 2225 1825 
Q 2225 2200 2125 2387 
Q 2025 2575 1775 2575 
Q 1400 2575 1025 2150 
L 1025 650 
Q 1025 350 1075 300 
Q 1125 200 1200 162 
Q 1275 125 1500 125 
L 1500 0 
L 75 0 
L 75 125 
L 150 125 
Q 375 125 450 225 
Q 525 325 525 650 
L 525 1700 
Q 525 2225 500 2337 
Q 475 2450 425 2487 
Q 375 2525 300 2525 
Q 200 2525 75 2475 
L 50 2600 
L 900 2950 
L 1025 2950 
L 1025 2350 
z
" transform="scale(0.015625)"/>
       <path id="SimSun-67" d="M 975 1050 
Q 700 1175 562 1400 
Q 425 1625 425 1900 
Q 425 2325 750 2637 
Q 1075 2950 1575 2950 
Q 1975 2950 2275 2750 
L 2875 2750 
Q 3025 2750 3037 2737 
Q 3050 2725 3075 2725 
Q 3075 2675 3075 2625 
Q 3075 2525 3075 2500 
Q 3050 2475 3037 2475 
Q 3025 2475 2875 2475 
L 2500 2475 
Q 2675 2250 2675 1900 
Q 2675 1500 2375 1212 
Q 2075 925 1550 925 
Q 1350 925 1125 975 
Q 975 875 925 787 
Q 875 700 875 625 
Q 875 575 937 525 
Q 1000 475 1150 450 
Q 1225 450 1575 425 
Q 2225 425 2400 375 
Q 2700 350 2875 175 
Q 3050 0 3050 -250 
Q 3050 -625 2725 -925 
Q 2225 -1375 1450 -1375 
Q 850 -1375 425 -1100 
Q 200 -950 200 -775 
Q 200 -700 225 -625 
Q 275 -525 450 -300 
Q 475 -275 775 25 
Q 600 125 537 200 
Q 475 275 475 375 
Q 475 475 562 625 
Q 650 775 975 1050 
z
M 1500 2800 
Q 1275 2800 1125 2612 
Q 975 2425 975 2050 
Q 975 1550 1175 1275 
Q 1350 1075 1600 1075 
Q 1825 1075 1975 1250 
Q 2125 1425 2125 1825 
Q 2125 2300 1925 2600 
Q 1750 2800 1500 2800 
z
M 925 0 
Q 800 -150 725 -287 
Q 650 -425 650 -550 
Q 650 -700 825 -800 
Q 1125 -1000 1725 -1000 
Q 2275 -1000 2550 -800 
Q 2825 -600 2825 -375 
Q 2825 -225 2650 -150 
Q 2500 -75 2025 -75 
Q 1325 -50 925 0 
z
" transform="scale(0.015625)"/>
       <path id="SimSun-6c" d="M 1175 4450 
L 1175 650 
Q 1175 375 1225 287 
Q 1275 200 1350 162 
Q 1425 125 1650 125 
L 1650 0 
L 250 0 
L 250 125 
Q 450 125 512 162 
Q 575 200 625 287 
Q 675 375 675 650 
L 675 3250 
Q 675 3725 650 3837 
Q 625 3950 575 3987 
Q 525 4025 450 4025 
Q 375 4025 250 3975 
L 200 4100 
L 1050 4450 
L 1175 4450 
z
" transform="scale(0.015625)"/>
       <path id="SimSun-65" d="M 675 1775 
Q 675 1150 1000 775 
Q 1300 425 1725 425 
Q 2000 425 2212 575 
Q 2425 725 2575 1100 
L 2650 1050 
Q 2600 625 2287 275 
Q 1975 -75 1500 -75 
Q 975 -75 612 325 
Q 250 725 250 1400 
Q 250 2125 625 2537 
Q 1000 2950 1550 2950 
Q 2050 2950 2350 2637 
Q 2650 2325 2650 1775 
L 675 1775 
z
M 675 1975 
L 2000 1975 
Q 2000 2250 1950 2350 
Q 1875 2525 1712 2625 
Q 1550 2725 1375 2725 
Q 1125 2725 925 2525 
Q 725 2325 675 1975 
z
" transform="scale(0.015625)"/>
       <path id="SimSun-20" transform="scale(0.015625)"/>
       <path id="SimSun-6f" d="M 1600 2950 
Q 2250 2950 2650 2450 
Q 2975 2025 2975 1475 
Q 2975 1100 2787 712 
Q 2600 325 2287 125 
Q 1975 -75 1575 -75 
Q 925 -75 550 425 
Q 225 875 225 1400 
Q 225 1800 412 2187 
Q 600 2575 925 2762 
Q 1250 2950 1600 2950 
z
M 1500 2750 
Q 1350 2750 1175 2650 
Q 1000 2550 900 2300 
Q 800 2050 800 1675 
Q 800 1050 1050 587 
Q 1300 125 1700 125 
Q 2000 125 2200 375 
Q 2400 625 2400 1250 
Q 2400 2000 2075 2450 
Q 1850 2750 1500 2750 
z
" transform="scale(0.015625)"/>
       <path id="SimSun-66" d="M 1325 2650 
L 1325 750 
Q 1325 350 1400 250 
Q 1525 125 1725 125 
L 1975 125 
L 1975 0 
L 275 0 
L 275 125 
L 400 125 
Q 525 125 625 187 
Q 725 250 762 350 
Q 800 450 800 750 
L 800 2650 
L 250 2650 
L 250 2875 
L 800 2875 
L 800 3050 
Q 800 3475 937 3775 
Q 1075 4075 1362 4262 
Q 1650 4450 2000 4450 
Q 2325 4450 2600 4225 
Q 2775 4075 2775 3900 
Q 2775 3825 2700 3737 
Q 2625 3650 2525 3650 
Q 2450 3650 2375 3700 
Q 2300 3750 2187 3925 
Q 2075 4100 1975 4150 
Q 1875 4225 1750 4225 
Q 1600 4225 1500 4137 
Q 1400 4050 1362 3900 
Q 1325 3750 1325 3075 
L 1325 2875 
L 2050 2875 
L 2050 2650 
L 1325 2650 
z
" transform="scale(0.015625)"/>
       <path id="SimSun-74" d="M 1025 3800 
L 1025 2875 
L 1700 2875 
L 1700 2650 
L 1025 2650 
L 1025 800 
Q 1025 500 1112 412 
Q 1200 325 1325 325 
Q 1425 325 1525 387 
Q 1625 450 1675 575 
L 1800 575 
Q 1675 275 1475 112 
Q 1275 -50 1075 -50 
Q 925 -50 787 37 
Q 650 125 587 262 
Q 525 400 525 725 
L 525 2650 
L 75 2650 
L 75 2750 
Q 225 2825 412 2987 
Q 600 3150 725 3375 
Q 800 3500 925 3800 
L 1025 3800 
z
" transform="scale(0.015625)"/>
       <path id="SimSun-61" d="M 1825 425 
Q 1375 75 1275 25 
Q 1100 -50 900 -50 
Q 625 -50 425 150 
Q 225 350 225 675 
Q 225 900 325 1050 
Q 450 1250 762 1437 
Q 1075 1625 1825 1900 
L 1825 2000 
Q 1825 2450 1687 2600 
Q 1550 2750 1300 2750 
Q 1100 2750 975 2650 
Q 850 2550 850 2400 
L 875 2225 
Q 875 2075 800 2000 
Q 725 1925 600 1925 
Q 475 1925 412 2012 
Q 350 2100 350 2225 
Q 350 2500 625 2725 
Q 900 2950 1375 2950 
Q 1775 2950 2000 2825 
Q 2200 2725 2275 2525 
Q 2350 2375 2350 1975 
L 2350 1000 
Q 2350 575 2362 487 
Q 2375 400 2412 375 
Q 2450 350 2500 350 
Q 2550 350 2575 350 
Q 2650 400 2825 600 
L 2825 425 
Q 2475 -50 2150 -50 
Q 2000 -50 1912 50 
Q 1825 150 1825 425 
z
M 1825 625 
L 1825 1700 
Q 1350 1525 1225 1450 
Q 975 1300 862 1150 
Q 750 1000 750 825 
Q 750 600 887 450 
Q 1025 300 1200 300 
Q 1425 300 1825 625 
z
" transform="scale(0.015625)"/>
       <path id="SimSun-63" d="M 2625 1100 
Q 2525 525 2187 225 
Q 1850 -75 1425 -75 
Q 950 -75 587 325 
Q 225 725 225 1425 
Q 225 2100 625 2525 
Q 1025 2950 1575 2950 
Q 2000 2950 2275 2725 
Q 2550 2500 2550 2250 
Q 2550 2150 2475 2075 
Q 2400 2000 2250 2000 
Q 2075 2000 1975 2125 
Q 1925 2175 1912 2362 
Q 1900 2550 1775 2650 
Q 1675 2750 1475 2750 
Q 1175 2750 975 2500 
Q 725 2200 725 1700 
Q 725 1175 975 787 
Q 1225 400 1650 400 
Q 1975 400 2200 600 
Q 2375 750 2550 1125 
L 2625 1100 
z
" transform="scale(0.015625)"/>
       <path id="SimSun-6b" d="M 1050 4450 
L 1050 1600 
L 1775 2250 
Q 2000 2475 2050 2525 
Q 2075 2575 2075 2600 
Q 2075 2675 2025 2712 
Q 1975 2750 1850 2775 
L 1850 2875 
L 3100 2875 
L 3100 2775 
Q 2825 2750 2662 2687 
Q 2500 2625 2300 2425 
L 1550 1750 
L 2300 825 
Q 2600 450 2700 325 
Q 2850 200 2975 150 
Q 3050 125 3250 125 
L 3250 0 
L 1850 0 
L 1850 125 
Q 1975 125 2012 150 
Q 2050 175 2050 250 
Q 2050 325 1925 475 
L 1050 1600 
L 1050 650 
Q 1050 375 1087 287 
Q 1125 200 1200 162 
Q 1275 125 1500 125 
L 1500 0 
L 50 0 
L 50 125 
Q 275 125 375 175 
Q 450 200 475 275 
Q 525 375 525 625 
L 525 3225 
Q 525 3725 500 3837 
Q 475 3950 425 4000 
Q 375 4050 300 4050 
Q 250 4050 100 3975 
L 50 4100 
L 900 4450 
L 1050 4450 
z
" transform="scale(0.015625)"/>
       <path id="SimSun-28" d="M 2000 -1250 
L 2000 -1375 
Q 1525 -1125 1200 -800 
Q 750 -350 512 262 
Q 275 875 275 1525 
Q 275 2500 750 3300 
Q 1225 4100 2000 4450 
L 2000 4325 
Q 1600 4100 1350 3737 
Q 1100 3375 987 2800 
Q 875 2225 875 1625 
Q 875 950 975 400 
Q 1050 -25 1162 -287 
Q 1275 -550 1475 -787 
Q 1675 -1025 2000 -1250 
z
" transform="scale(0.015625)"/>
       <path id="STIXGeneral-Regular-b0" d="M 2195 3411 
Q 2195 3027 1929 2761 
Q 1664 2496 1280 2496 
Q 890 2496 627 2761 
Q 365 3027 365 3418 
Q 365 3802 633 4064 
Q 902 4326 1293 4326 
Q 1664 4326 1929 4057 
Q 2195 3789 2195 3411 
z
M 1946 3418 
Q 1946 3699 1744 3904 
Q 1542 4109 1267 4109 
Q 1005 4109 809 3901 
Q 614 3693 614 3411 
Q 614 3123 809 2918 
Q 1005 2714 1280 2714 
Q 1555 2714 1750 2922 
Q 1946 3130 1946 3418 
z
" transform="scale(0.015625)"/>
       <path id="SimSun-29" d="M 150 4325 
L 150 4450 
Q 625 4200 925 3900 
Q 1375 3425 1625 2812 
Q 1875 2200 1875 1550 
Q 1875 575 1400 -225 
Q 925 -1025 150 -1375 
L 150 -1250 
Q 525 -1025 775 -662 
Q 1025 -300 1150 262 
Q 1275 825 1275 1450 
Q 1275 2125 1175 2675 
Q 1075 3100 962 3362 
Q 850 3625 662 3862 
Q 475 4100 150 4325 
z
" transform="scale(0.015625)"/>
      </defs>
      <use xlink:href="#SimSun-41" transform="translate(0 0.46875)"/>
      <use xlink:href="#SimSun-6e" transform="translate(72.265625 0.46875)"/>
      <use xlink:href="#SimSun-67" transform="translate(122.265625 0.46875)"/>
      <use xlink:href="#SimSun-6c" transform="translate(172.265625 0.46875)"/>
      <use xlink:href="#SimSun-65" transform="translate(200 0.46875)"/>
      <use xlink:href="#SimSun-20" transform="translate(244.53125 0.46875)"/>
      <use xlink:href="#SimSun-6f" transform="translate(269.53125 0.46875)"/>
      <use xlink:href="#SimSun-66" transform="translate(319.53125 0.46875)"/>
      <use xlink:href="#SimSun-20" transform="translate(352.734375 0.46875)"/>
      <use xlink:href="#SimSun-41" transform="translate(377.734375 0.46875)"/>
      <use xlink:href="#SimSun-74" transform="translate(450 0.46875)"/>
      <use xlink:href="#SimSun-74" transform="translate(477.734375 0.46875)"/>
      <use xlink:href="#SimSun-61" transform="translate(505.46875 0.46875)"/>
      <use xlink:href="#SimSun-63" transform="translate(550 0.46875)"/>
      <use xlink:href="#SimSun-6b" transform="translate(594.53125 0.46875)"/>
      <use xlink:href="#SimSun-20" transform="translate(644.53125 0.46875)"/>
      <use xlink:href="#SimSun-28" transform="translate(669.53125 0.46875)"/>
      <use xlink:href="#STIXGeneral-Regular-b0" transform="translate(702.734375 0.46875)"/>
      <use xlink:href="#SimSun-29" transform="translate(742.73436 0.46875)"/>
     </g>
    </g>
   </g>
   <g id="matplotlib.axis_2">
    <g id="ytick_1">
     <g id="line2d_6">
      <defs>
       <path id="me459e2a9bb" d="M 0 0 
L 3.5 0 
" style="stroke: #000000; stroke-width: 0.8"/>
      </defs>
      <g>
       <use xlink:href="#me459e2a9bb" x="57.6" y="281.911901" style="stroke: #000000; stroke-width: 0.8"/>
      </g>
     </g>
     <g id="text_7">
      <!-- 0.02 -->
      <g transform="translate(33.1 286.083776)scale(0.12 -0.12)">
       <defs>
        <path id="SimSun-2e" d="M 800 600 
Q 950 600 1050 500 
Q 1150 400 1150 250 
Q 1150 125 1050 25 
Q 950 -75 800 -75 
Q 650 -75 550 25 
Q 450 125 450 250 
Q 450 400 550 500 
Q 650 600 800 600 
z
" transform="scale(0.015625)"/>
        <path id="SimSun-32" d="M 2925 825 
L 2650 0 
L 150 0 
L 150 125 
Q 1250 1125 1700 1762 
Q 2150 2400 2150 2925 
Q 2150 3325 1900 3587 
Q 1650 3850 1300 3850 
Q 1000 3850 750 3662 
Q 500 3475 375 3125 
L 250 3125 
Q 350 3700 662 4012 
Q 975 4325 1475 4325 
Q 1975 4325 2325 4000 
Q 2675 3675 2675 3225 
Q 2675 2900 2525 2575 
Q 2300 2075 1775 1500 
Q 1000 650 800 475 
L 1900 475 
Q 2250 475 2387 500 
Q 2525 525 2637 600 
Q 2750 675 2825 825 
L 2925 825 
z
" transform="scale(0.015625)"/>
       </defs>
       <use xlink:href="#SimSun-30"/>
       <use xlink:href="#SimSun-2e" x="50"/>
       <use xlink:href="#SimSun-30" x="75"/>
       <use xlink:href="#SimSun-32" x="125"/>
      </g>
     </g>
    </g>
    <g id="ytick_2">
     <g id="line2d_7">
      <g>
       <use xlink:href="#me459e2a9bb" x="57.6" y="249.150305" style="stroke: #000000; stroke-width: 0.8"/>
      </g>
     </g>
     <g id="text_8">
      <!-- 0.04 -->
      <g transform="translate(33.1 253.32218)scale(0.12 -0.12)">
       <defs>
        <path id="SimSun-34" d="M 2975 1575 
L 2975 1125 
L 2400 1125 
L 2400 0 
L 1900 0 
L 1900 1125 
L 100 1125 
L 100 1525 
L 2075 4325 
L 2400 4325 
L 2400 1575 
L 2975 1575 
z
M 1900 1575 
L 1900 3675 
L 400 1575 
L 1900 1575 
z
" transform="scale(0.015625)"/>
       </defs>
       <use xlink:href="#SimSun-30"/>
       <use xlink:href="#SimSun-2e" x="50"/>
       <use xlink:href="#SimSun-30" x="75"/>
       <use xlink:href="#SimSun-34" x="125"/>
      </g>
     </g>
    </g>
    <g id="ytick_3">
     <g id="line2d_8">
      <g>
       <use xlink:href="#me459e2a9bb" x="57.6" y="216.388709" style="stroke: #000000; stroke-width: 0.8"/>
      </g>
     </g>
     <g id="text_9">
      <!-- 0.06 -->
      <g transform="translate(33.1 220.560584)scale(0.12 -0.12)">
       <defs>
        <path id="SimSun-36" d="M 2875 4325 
L 2875 4200 
Q 2450 4175 2187 4050 
Q 1925 3925 1675 3675 
Q 1425 3425 1262 3112 
Q 1100 2800 975 2375 
Q 1425 2675 1875 2675 
Q 2325 2675 2637 2325 
Q 2950 1975 2950 1425 
Q 2950 900 2625 450 
Q 2250 -75 1600 -75 
Q 1175 -75 875 225 
Q 275 775 275 1675 
Q 275 2225 500 2737 
Q 725 3250 1150 3650 
Q 1575 4050 1962 4187 
Q 2350 4325 2700 4325 
L 2875 4325 
z
M 925 2150 
Q 875 1725 875 1450 
Q 875 1150 987 800 
Q 1100 450 1300 250 
Q 1475 100 1700 100 
Q 1975 100 2187 362 
Q 2400 625 2400 1100 
Q 2400 1625 2187 2012 
Q 1975 2400 1575 2400 
Q 1475 2400 1337 2350 
Q 1200 2300 925 2150 
z
" transform="scale(0.015625)"/>
       </defs>
       <use xlink:href="#SimSun-30"/>
       <use xlink:href="#SimSun-2e" x="50"/>
       <use xlink:href="#SimSun-30" x="75"/>
       <use xlink:href="#SimSun-36" x="125"/>
      </g>
     </g>
    </g>
    <g id="ytick_4">
     <g id="line2d_9">
      <g>
       <use xlink:href="#me459e2a9bb" x="57.6" y="183.627112" style="stroke: #000000; stroke-width: 0.8"/>
      </g>
     </g>
     <g id="text_10">
      <!-- 0.08 -->
      <g transform="translate(33.1 187.798987)scale(0.12 -0.12)">
       <defs>
        <path id="SimSun-38" d="M 1225 2125 
Q 725 2550 575 2800 
Q 425 3050 425 3325 
Q 425 3725 750 4025 
Q 1075 4325 1600 4325 
Q 2125 4325 2437 4050 
Q 2750 3775 2750 3425 
Q 2750 3175 2575 2925 
Q 2400 2675 1875 2350 
Q 2425 1925 2600 1675 
Q 2825 1350 2825 1000 
Q 2825 550 2487 237 
Q 2150 -75 1600 -75 
Q 1000 -75 650 300 
Q 400 600 400 975 
Q 400 1250 587 1525 
Q 775 1800 1225 2125 
z
M 1725 2475 
Q 2100 2800 2200 3000 
Q 2300 3200 2300 3450 
Q 2300 3775 2112 3962 
Q 1925 4150 1600 4150 
Q 1300 4150 1100 3962 
Q 900 3775 900 3525 
Q 900 3375 975 3212 
Q 1050 3050 1200 2900 
L 1725 2475 
z
M 1375 2025 
Q 1125 1800 1000 1537 
Q 875 1275 875 975 
Q 875 575 1087 337 
Q 1300 100 1650 100 
Q 1975 100 2187 287 
Q 2400 475 2400 750 
Q 2400 975 2275 1150 
Q 2050 1475 1375 2025 
z
" transform="scale(0.015625)"/>
       </defs>
       <use xlink:href="#SimSun-30"/>
       <use xlink:href="#SimSun-2e" x="50"/>
       <use xlink:href="#SimSun-30" x="75"/>
       <use xlink:href="#SimSun-38" x="125"/>
      </g>
     </g>
    </g>
    <g id="ytick_5">
     <g id="line2d_10">
      <g>
       <use xlink:href="#me459e2a9bb" x="57.6" y="150.865516" style="stroke: #000000; stroke-width: 0.8"/>
      </g>
     </g>
     <g id="text_11">
      <!-- 0.10 -->
      <g transform="translate(33.1 155.037391)scale(0.12 -0.12)">
       <use xlink:href="#SimSun-30"/>
       <use xlink:href="#SimSun-2e" x="50"/>
       <use xlink:href="#SimSun-31" x="75"/>
       <use xlink:href="#SimSun-30" x="125"/>
      </g>
     </g>
    </g>
    <g id="ytick_6">
     <g id="line2d_11">
      <g>
       <use xlink:href="#me459e2a9bb" x="57.6" y="118.10392" style="stroke: #000000; stroke-width: 0.8"/>
      </g>
     </g>
     <g id="text_12">
      <!-- 0.12 -->
      <g transform="translate(33.1 122.275795)scale(0.12 -0.12)">
       <use xlink:href="#SimSun-30"/>
       <use xlink:href="#SimSun-2e" x="50"/>
       <use xlink:href="#SimSun-31" x="75"/>
       <use xlink:href="#SimSun-32" x="125"/>
      </g>
     </g>
    </g>
    <g id="ytick_7">
     <g id="line2d_12">
      <g>
       <use xlink:href="#me459e2a9bb" x="57.6" y="85.342324" style="stroke: #000000; stroke-width: 0.8"/>
      </g>
     </g>
     <g id="text_13">
      <!-- 0.14 -->
      <g transform="translate(33.1 89.514199)scale(0.12 -0.12)">
       <use xlink:href="#SimSun-30"/>
       <use xlink:href="#SimSun-2e" x="50"/>
       <use xlink:href="#SimSun-31" x="75"/>
       <use xlink:href="#SimSun-34" x="125"/>
      </g>
     </g>
    </g>
    <g id="ytick_8">
     <g id="line2d_13">
      <g>
       <use xlink:href="#me459e2a9bb" x="57.6" y="52.580728" style="stroke: #000000; stroke-width: 0.8"/>
      </g>
     </g>
     <g id="text_14">
      <!-- 0.16 -->
      <g transform="translate(33.1 56.752603)scale(0.12 -0.12)">
       <use xlink:href="#SimSun-30"/>
       <use xlink:href="#SimSun-2e" x="50"/>
       <use xlink:href="#SimSun-31" x="75"/>
       <use xlink:href="#SimSun-36" x="125"/>
      </g>
     </g>
    </g>
    <g id="text_15">
     <!-- $\mathrm{C_D}$ -->
     <g transform="translate(26.521875 181.968)rotate(-90)scale(0.12 -0.12)">
      <defs>
       <path id="STIXGeneral-Regular-43" d="M 3930 838 
L 4051 723 
Q 3482 -90 2304 -90 
Q 1376 -90 794 480 
Q 179 1082 179 2080 
Q 179 3014 755 3661 
Q 1357 4326 2310 4326 
Q 2720 4326 3072 4230 
Q 3475 4115 3514 4115 
Q 3725 4115 3782 4326 
L 3910 4326 
L 3968 2874 
L 3821 2874 
Q 3718 3334 3488 3584 
Q 3034 4070 2458 4070 
Q 1747 4070 1334 3548 
Q 922 3027 922 2182 
Q 922 1152 1382 653 
Q 1811 192 2522 192 
Q 2944 192 3251 339 
Q 3558 486 3930 838 
z
" transform="scale(0.015625)"/>
       <path id="STIXGeneral-Regular-44" d="M 102 4237 
L 1830 4237 
Q 3078 4237 3750 3654 
Q 4384 3110 4384 2138 
Q 4384 966 3514 410 
Q 2880 0 1901 0 
L 102 0 
L 102 122 
Q 474 147 570 252 
Q 666 358 666 736 
L 666 3520 
Q 666 3891 570 3990 
Q 474 4090 102 4115 
L 102 4237 
z
M 1318 3731 
L 1318 538 
Q 1318 365 1379 301 
Q 1440 237 1626 237 
Q 2125 237 2432 307 
Q 2739 378 3021 570 
Q 3686 1018 3686 2099 
Q 3686 3027 3078 3558 
Q 2803 3802 2476 3901 
Q 2150 4000 1658 4000 
Q 1472 4000 1395 3942 
Q 1318 3885 1318 3731 
z
" transform="scale(0.015625)"/>
      </defs>
      <use xlink:href="#STIXGeneral-Regular-43" transform="translate(0 0.40625)"/>
      <use xlink:href="#STIXGeneral-Regular-44" transform="translate(68.274997 -13.09375)scale(0.7)"/>
     </g>
    </g>
   </g>
   <g id="line2d_14">
    <path d="M 73.832727 266.786701 
L 77.112164 268.589933 
L 80.391604 270.295637 
L 83.671048 271.903813 
L 86.950494 273.414462 
L 90.229944 274.827582 
L 93.509398 276.143175 
L 96.788854 277.363069 
L 100.068313 278.496518 
L 103.347773 279.544811 
L 106.627235 280.507948 
L 109.9067 281.386095 
L 113.186165 282.183218 
L 116.465632 282.900999 
L 119.745101 283.539438 
L 123.02457 284.098533 
L 126.30404 284.579702 
L 129.583511 284.984756 
L 132.862983 285.313704 
L 136.142455 285.566546 
L 139.421928 285.744376 
L 142.701401 285.851224 
L 145.980873 285.887466 
L 149.260346 285.853101 
L 152.539819 285.748621 
L 155.819292 285.580647 
L 159.098764 285.351264 
L 162.378236 285.060471 
L 165.657707 284.708268 
L 168.937178 284.295538 
L 172.216649 283.823088 
L 175.496118 283.290916 
L 178.775587 282.699024 
L 182.055055 282.048677 
L 185.334522 281.343315 
L 188.613989 280.583132 
L 191.893454 279.768129 
L 195.172918 278.898351 
L 198.452382 277.974195 
L 201.731844 276.995751 
L 205.011304 275.96302 
L 208.290764 274.875988 
L 211.570222 273.73331 
L 214.849679 272.534098 
L 218.129134 271.27835 
L 221.408587 269.966068 
L 224.688039 268.596747 
L 227.967488 267.169373 
L 231.246936 265.683915 
L 234.526382 264.140375 
L 237.805826 262.538324 
L 241.085268 260.875216 
L 244.364707 259.150631 
L 247.644143 257.364568 
L 250.923578 255.516938 
L 254.203009 253.604718 
L 257.482438 251.626431 
L 260.761863 249.582077 
L 264.041286 247.471656 
L 267.320705 245.293488 
L 270.600121 243.045068 
L 273.879533 240.726371 
L 277.158941 238.337398 
L 280.438345 235.877352 
L 283.717746 233.342832 
L 286.997141 230.733449 
L 290.276533 228.049204 
L 293.555919 225.289699 
L 296.835301 222.448028 
L 300.114677 219.521684 
L 303.394047 216.510664 
L 306.673412 213.414971 
L 309.952769 210.21774 
L 313.232117 206.900767 
L 316.511456 203.464045 
L 319.790786 199.907575 
L 323.070106 196.226148 
L 326.349414 192.403394 
L 329.628709 188.438117 
L 332.907991 184.330317 
L 336.18726 180.075581 
L 339.46651 175.627057 
L 342.745737 170.972142 
L 346.024943 166.110839 
L 349.304127 161.043049 
L 352.583283 155.744822 
L 355.862407 150.197648 
L 359.1415 144.401525 
L 362.42056 138.356455 
L 365.699586 132.056392 
L 368.978571 125.48718 
L 372.257515 118.648234 
L 375.536418 111.539555 
L 378.815277 104.157833 
L 382.094083 96.47945 
L 385.372833 88.499764 
L 388.651527 80.218776 
L 391.930165 71.636487 
L 395.208747 62.752894 
L 398.487273 53.568 
" clip-path="url(#pda0357531e)" style="fill: none; stroke: #1f77b4; stroke-width: 1.5; stroke-linecap: square"/>
   </g>
   <g id="line2d_15">
    <path d="M 73.832727 274.979094 
L 77.112164 276.58863 
L 80.391604 278.1054 
L 83.671047 279.529406 
L 86.950492 280.860647 
L 90.22994 282.099122 
L 93.509391 283.244833 
L 96.788845 284.300126 
L 100.0683 285.276878 
L 103.347756 286.176744 
L 106.627214 286.999722 
L 109.906674 287.746024 
L 113.186134 288.420663 
L 116.465596 289.025765 
L 119.745058 289.561329 
L 123.024522 290.027354 
L 126.303986 290.425452 
L 129.58345 290.757683 
L 132.862915 291.024056 
L 136.14238 291.22457 
L 139.421846 291.360158 
L 142.701311 291.434248 
L 145.980777 291.44716 
L 149.260243 291.398892 
L 152.539708 291.290009 
L 155.819174 291.128097 
L 159.098639 290.915541 
L 162.378104 290.652343 
L 165.657568 290.338503 
L 168.937033 289.975413 
L 172.216496 289.564347 
L 175.49596 289.105307 
L 178.775422 288.59829 
L 182.054885 288.04457 
L 185.334346 287.447601 
L 188.613807 286.80758 
L 191.893268 286.124507 
L 195.172728 285.398343 
L 198.452186 284.628761 
L 201.731645 283.815686 
L 205.011102 282.959116 
L 208.290559 282.059039 
L 211.570014 281.114023 
L 214.849469 280.123122 
L 218.128922 279.086336 
L 221.408375 278.003664 
L 224.687826 276.874404 
L 227.967276 275.69713 
L 231.246725 274.471803 
L 234.526172 273.198422 
L 237.805618 271.876317 
L 241.085062 270.501491 
L 244.364505 269.073283 
L 247.643946 267.591693 
L 250.923385 266.056621 
L 254.202822 264.464702 
L 257.482257 262.81429 
L 260.761689 261.105387 
L 264.04112 259.33799 
L 267.320547 257.510585 
L 270.599973 255.620909 
L 273.879395 253.668941 
L 277.158815 251.65468 
L 280.438232 249.576767 
L 283.717646 247.429389 
L 286.997055 245.211885 
L 290.276462 242.924255 
L 293.555865 240.566027 
L 296.835263 238.129029 
L 300.114657 235.610291 
L 303.394046 233.009812 
L 306.673431 230.327592 
L 309.952809 227.546194 
L 313.23218 224.646791 
L 316.511542 221.629377 
L 319.790897 218.49395 
L 323.070243 215.232721 
L 326.349577 211.821191 
L 329.628899 208.257576 
L 332.908209 204.541875 
L 336.187507 200.668611 
L 339.466783 196.579664 
L 342.746038 192.259409 
L 346.025269 187.707845 
L 349.304478 182.924836 
L 352.583657 177.876759 
L 355.8628 172.537636 
L 359.141907 166.907468 
L 362.420978 160.986254 
L 365.700009 154.76468 
L 368.978991 148.220941 
L 372.257923 141.354134 
L 375.536806 134.164261 
L 378.815637 126.649573 
L 382.094406 118.797593 
L 385.37311 110.605871 
L 388.651748 102.074406 
L 391.930321 93.203199 
L 395.20883 83.992249 
L 398.487273 74.441557 
" clip-path="url(#pda0357531e)" style="fill: none; stroke: #ff7f0e; stroke-width: 1.5; stroke-linecap: square"/>
   </g>
   <g id="line2d_16">
    <path d="M 73.832727 278.767947 
L 77.112166 280.289027 
L 80.391608 281.718914 
L 83.671052 283.057609 
L 86.950498 284.305111 
L 90.229947 285.46142 
L 93.509398 286.526536 
L 96.788852 287.503118 
L 100.068308 288.40462 
L 103.347764 289.232913 
L 106.627222 289.987999 
L 109.906681 290.670101 
L 113.186142 291.284548 
L 116.465602 291.833597 
L 119.745064 292.31725 
L 123.024527 292.735506 
L 126.30399 293.090485 
L 129.583453 293.384902 
L 132.862917 293.618769 
L 136.142381 293.792085 
L 139.421845 293.905685 
L 142.701309 293.962637 
L 145.980774 293.963228 
L 149.260238 293.907458 
L 152.539702 293.795899 
L 155.819166 293.636287 
L 159.09863 293.431053 
L 162.378094 293.180199 
L 165.657557 292.883724 
L 168.93702 292.543222 
L 172.216483 292.160146 
L 175.495945 291.734498 
L 178.775407 291.266277 
L 182.054869 290.756716 
L 185.33433 290.209166 
L 188.61379 289.623815 
L 191.89325 289.000664 
L 195.172709 288.339647 
L 198.452168 287.640185 
L 201.731626 286.902146 
L 205.011084 286.125529 
L 208.290541 285.310323 
L 211.569997 284.455239 
L 214.849452 283.559426 
L 218.128906 282.622884 
L 221.40836 281.645614 
L 224.687813 280.626782 
L 227.967264 279.564707 
L 231.246715 278.459339 
L 234.526164 277.31068 
L 237.805612 276.117978 
L 241.085059 274.876755 
L 244.364505 273.586271 
L 247.643949 272.246525 
L 250.923391 270.857411 
L 254.202832 269.415306 
L 257.482271 267.91844 
L 260.761708 266.366812 
L 264.041143 264.760423 
L 267.320577 263.097687 
L 270.600007 261.376236 
L 273.879436 259.596048 
L 277.158862 257.757123 
L 280.438286 255.858034 
L 283.717706 253.89268 
L 286.997124 251.860367 
L 290.276538 249.761094 
L 293.55595 247.594382 
L 296.835357 245.35191 
L 300.11476 243.030655 
L 303.39416 240.630617 
L 306.673555 238.151796 
L 309.952944 235.575214 
L 313.232326 232.880386 
L 316.511701 230.067304 
L 319.791068 227.135969 
L 323.070428 224.077599 
L 326.349775 220.864586 
L 329.629111 217.494919 
L 332.908436 213.968599 
L 336.187747 210.279413 
L 339.467038 206.361494 
L 342.746306 202.197135 
L 346.025551 197.786336 
L 349.304773 193.128939 
L 352.583962 188.18604 
L 355.863114 182.92759 
L 359.142226 177.353591 
L 362.421301 171.464042 
L 365.700332 165.248479 
L 368.979309 158.682414 
L 372.258232 151.764838 
L 375.537101 144.495748 
L 378.815914 136.872963 
L 382.094656 128.8809 
L 385.373326 120.5165 
L 388.651922 111.779762 
L 391.930445 102.670687 
L 395.208896 93.189276 
L 398.487273 83.335527 
" clip-path="url(#pda0357531e)" style="fill: none; stroke: #2ca02c; stroke-width: 1.5; stroke-linecap: square"/>
   </g>
   <g id="line2d_17">
    <path d="M 73.832727 281.048289 
L 77.112167 282.520983 
L 80.39161 283.902457 
L 83.671054 285.192712 
L 86.950502 286.391748 
L 90.229951 287.499565 
L 93.509404 288.516162 
L 96.788858 289.444556 
L 100.068314 290.300005 
L 103.34777 291.084634 
L 106.627228 291.798443 
L 109.906688 292.44165 
L 113.186148 293.019457 
L 116.465609 293.53407 
L 119.74507 293.985488 
L 123.024532 294.373713 
L 126.303995 294.701398 
L 129.583458 294.971947 
L 132.862921 295.185372 
L 136.142385 295.341674 
L 139.421848 295.441615 
L 142.701312 295.488 
L 145.980776 295.48109 
L 149.26024 295.420884 
L 152.539703 295.307944 
L 155.819167 295.149818 
L 159.09863 294.948884 
L 162.378093 294.70514 
L 165.657556 294.418587 
L 168.937019 294.091019 
L 172.216481 293.724075 
L 175.495943 293.317756 
L 178.775405 292.872062 
L 182.054866 292.388204 
L 185.334326 291.869482 
L 188.613787 291.316081 
L 191.893247 290.728002 
L 195.172706 290.105165 
L 198.452165 289.44689 
L 201.731623 288.753019 
L 205.011081 288.023552 
L 208.290538 287.258478 
L 211.569995 286.456602 
L 214.849451 285.617135 
L 218.128906 284.740077 
L 221.40836 283.825427 
L 224.687814 282.872279 
L 227.967266 281.878799 
L 231.246718 280.844934 
L 234.526169 279.770684 
L 237.805618 278.655258 
L 241.085067 277.493942 
L 244.364514 276.285956 
L 247.64396 275.031299 
L 250.923405 273.729855 
L 254.202848 272.377697 
L 257.482289 270.972905 
L 260.761729 269.515478 
L 264.041167 268.005417 
L 267.320603 266.441222 
L 270.600037 264.820654 
L 273.879469 263.143694 
L 277.158899 261.41034 
L 280.438327 259.619063 
L 283.717751 257.763326 
L 286.997173 255.842384 
L 290.276593 253.856237 
L 293.556009 251.804358 
L 296.835422 249.677605 
L 300.11483 247.472655 
L 303.394235 245.189508 
L 306.673636 242.828165 
L 309.953032 240.370076 
L 313.23242 237.795222 
L 316.511802 235.103596 
L 319.791177 232.295197 
L 323.070544 229.360168 
L 326.3499 226.267528 
L 329.629244 223.015019 
L 332.908577 219.602642 
L 336.187897 216.023799 
L 339.467197 212.208548 
L 342.746473 208.138088 
L 346.025726 203.81242 
L 349.304955 199.231368 
L 352.584151 194.351285 
L 355.863307 189.138472 
L 359.142423 183.592929 
L 362.421498 177.714656 
L 365.700528 171.493254 
L 368.979502 164.904394 
L 372.258418 157.947074 
L 375.537278 150.621293 
L 378.816078 142.924948 
L 382.094803 134.843035 
L 385.373452 126.37261 
L 388.652023 117.513673 
L 391.930517 108.266223 
L 395.208933 98.630262 
L 398.487273 88.605788 
" clip-path="url(#pda0357531e)" style="fill: none; stroke: #d62728; stroke-width: 1.5; stroke-linecap: square"/>
   </g>
   <g id="patch_3">
    <path d="M 57.6 307.584 
L 57.6 41.472 
" style="fill: none; stroke: #000000; stroke-width: 0.8; stroke-linejoin: miter; stroke-linecap: square"/>
   </g>
   <g id="patch_4">
    <path d="M 414.72 307.584 
L 414.72 41.472 
" style="fill: none; stroke: #000000; stroke-width: 0.8; stroke-linejoin: miter; stroke-linecap: square"/>
   </g>
   <g id="patch_5">
    <path d="M 57.6 307.584 
L 414.72 307.584 
" style="fill: none; stroke: #000000; stroke-width: 0.8; stroke-linejoin: miter; stroke-linecap: square"/>
   </g>
   <g id="patch_6">
    <path d="M 57.6 41.472 
L 414.72 41.472 
" style="fill: none; stroke: #000000; stroke-width: 0.8; stroke-linejoin: miter; stroke-linecap: square"/>
   </g>
   <g id="legend_1">
    <g id="line2d_18">
     <path d="M 68.4 56.472 
L 80.4 56.472 
L 92.4 56.472 
" style="fill: none; stroke: #1f77b4; stroke-width: 1.5; stroke-linecap: square"/>
    </g>
    <g id="text_16">
     <!-- Ma=0.2 -->
     <g transform="translate(102 60.672)scale(0.12 -0.12)">
      <defs>
       <path id="SimSun-4d" d="M 2625 0 
L 975 3575 
L 975 725 
Q 975 350 1075 250 
Q 1175 125 1425 125 
L 1575 125 
L 1575 0 
L 100 0 
L 100 125 
L 250 125 
Q 525 125 650 275 
Q 700 375 700 725 
L 700 3500 
Q 700 3775 650 3900 
Q 600 4000 487 4062 
Q 375 4125 100 4125 
L 100 4250 
L 1300 4250 
L 2850 925 
L 4350 4250 
L 5550 4250 
L 5550 4125 
L 5400 4125 
Q 5150 4125 5025 3950 
Q 4950 3850 4950 3500 
L 4950 725 
Q 4950 350 5050 250 
Q 5150 125 5400 125 
L 5550 125 
L 5550 0 
L 3750 0 
L 3750 125 
L 3900 125 
Q 4175 125 4300 275 
Q 4350 375 4350 725 
L 4350 3575 
L 2725 0 
L 2625 0 
z
" transform="scale(0.015625)"/>
       <path id="SimSun-3d" d="M 125 2750 
L 3500 2750 
L 3500 2500 
L 125 2500 
L 125 2750 
z
M 125 1750 
L 3500 1750 
L 3500 1475 
L 125 1475 
L 125 1750 
z
" transform="scale(0.015625)"/>
      </defs>
      <use xlink:href="#SimSun-4d"/>
      <use xlink:href="#SimSun-61" x="89.0625"/>
      <use xlink:href="#SimSun-3d" x="133.59375"/>
      <use xlink:href="#SimSun-30" x="189.84375"/>
      <use xlink:href="#SimSun-2e" x="239.84375"/>
      <use xlink:href="#SimSun-32" x="264.84375"/>
     </g>
    </g>
    <g id="line2d_19">
     <path d="M 68.4 73.450125 
L 80.4 73.450125 
L 92.4 73.450125 
" style="fill: none; stroke: #ff7f0e; stroke-width: 1.5; stroke-linecap: square"/>
    </g>
    <g id="text_17">
     <!-- Ma=0.4 -->
     <g transform="translate(102 77.650125)scale(0.12 -0.12)">
      <use xlink:href="#SimSun-4d"/>
      <use xlink:href="#SimSun-61" x="89.0625"/>
      <use xlink:href="#SimSun-3d" x="133.59375"/>
      <use xlink:href="#SimSun-30" x="189.84375"/>
      <use xlink:href="#SimSun-2e" x="239.84375"/>
      <use xlink:href="#SimSun-34" x="264.84375"/>
     </g>
    </g>
    <g id="line2d_20">
     <path d="M 68.4 90.42825 
L 80.4 90.42825 
L 92.4 90.42825 
" style="fill: none; stroke: #2ca02c; stroke-width: 1.5; stroke-linecap: square"/>
    </g>
    <g id="text_18">
     <!-- Ma=0.6 -->
     <g transform="translate(102 94.62825)scale(0.12 -0.12)">
      <use xlink:href="#SimSun-4d"/>
      <use xlink:href="#SimSun-61" x="89.0625"/>
      <use xlink:href="#SimSun-3d" x="133.59375"/>
      <use xlink:href="#SimSun-30" x="189.84375"/>
      <use xlink:href="#SimSun-2e" x="239.84375"/>
      <use xlink:href="#SimSun-36" x="264.84375"/>
     </g>
    </g>
    <g id="line2d_21">
     <path d="M 68.4 107.406375 
L 80.4 107.406375 
L 92.4 107.406375 
" style="fill: none; stroke: #d62728; stroke-width: 1.5; stroke-linecap: square"/>
    </g>
    <g id="text_19">
     <!-- Ma=0.8 -->
     <g transform="translate(102 111.606375)scale(0.12 -0.12)">
      <use xlink:href="#SimSun-4d"/>
      <use xlink:href="#SimSun-61" x="89.0625"/>
      <use xlink:href="#SimSun-3d" x="133.59375"/>
      <use xlink:href="#SimSun-30" x="189.84375"/>
      <use xlink:href="#SimSun-2e" x="239.84375"/>
      <use xlink:href="#SimSun-38" x="264.84375"/>
     </g>
    </g>
   </g>
  </g>
 </g>
 <defs>
  <clipPath id="pda0357531e">
   <rect x="57.6" y="41.472" width="357.12" height="266.112"/>
  </clipPath>
 </defs>
</svg>
