<?xml version="1.0" encoding="utf-8" standalone="no"?>
<!DOCTYPE svg PUBLIC "-//W3C//DTD SVG 1.1//EN"
  "http://www.w3.org/Graphics/SVG/1.1/DTD/svg11.dtd">
<svg xmlns:xlink="http://www.w3.org/1999/xlink" width="460.8pt" height="345.6pt" viewBox="0 0 460.8 345.6" xmlns="http://www.w3.org/2000/svg" version="1.1">
 <metadata>
  <rdf:RDF xmlns:dc="http://purl.org/dc/elements/1.1/" xmlns:cc="http://creativecommons.org/ns#" xmlns:rdf="http://www.w3.org/1999/02/22-rdf-syntax-ns#">
   <cc:Work>
    <dc:type rdf:resource="http://purl.org/dc/dcmitype/StillImage"/>
    <dc:date>2023-01-03T22:34:06.217206</dc:date>
    <dc:format>image/svg+xml</dc:format>
    <dc:creator>
     <cc:Agent>
      <dc:title>Matplotlib v3.5.3, https://matplotlib.org/</dc:title>
     </cc:Agent>
    </dc:creator>
   </cc:Work>
  </rdf:RDF>
 </metadata>
 <defs>
  <style type="text/css">*{stroke-linejoin: round; stroke-linecap: butt}</style>
 </defs>
 <g id="figure_1">
  <g id="patch_1">
   <path d="M 0 345.6 
L 460.8 345.6 
L 460.8 0 
L 0 0 
L 0 345.6 
z
" style="fill: none"/>
  </g>
  <g id="axes_1">
   <g id="patch_2">
    <path d="M 57.6 307.584 
L 414.72 307.584 
L 414.72 41.472 
L 57.6 41.472 
L 57.6 307.584 
z
" style="fill: none"/>
   </g>
   <g id="matplotlib.axis_1">
    <g id="xtick_1">
     <g id="line2d_1">
      <defs>
       <path id="m5005d82bf4" d="M 0 0 
L 0 -3.5 
" style="stroke: #000000; stroke-width: 0.8"/>
      </defs>
      <g>
       <use xlink:href="#m5005d82bf4" x="73.832727" y="307.584" style="stroke: #000000; stroke-width: 0.8"/>
      </g>
     </g>
     <g id="text_1">
      <!-- -5 -->
      <g transform="translate(68.84054 319.42775)scale(0.12 -0.12)">
       <defs>
        <path id="SimSun-2d" d="M 250 1675 
L 1875 1675 
L 1875 1200 
L 250 1200 
L 250 1675 
z
" transform="scale(0.015625)"/>
        <path id="SimSun-35" d="M 2775 4250 
L 2525 3700 
L 1250 3700 
L 975 3150 
Q 1800 3025 2300 2525 
Q 2700 2100 2700 1525 
Q 2700 1200 2575 912 
Q 2450 625 2237 425 
Q 2025 225 1775 100 
Q 1425 -75 1025 -75 
Q 650 -75 475 50 
Q 300 175 300 350 
Q 300 425 375 500 
Q 450 575 550 575 
Q 650 575 712 550 
Q 775 525 900 400 
Q 1150 250 1375 250 
Q 1750 250 2025 525 
Q 2300 800 2300 1200 
Q 2300 1575 2050 1912 
Q 1800 2250 1375 2425 
Q 1025 2575 450 2600 
L 1250 4250 
L 2775 4250 
z
" transform="scale(0.015625)"/>
       </defs>
       <use xlink:href="#SimSun-2d"/>
       <use xlink:href="#SimSun-35" x="33.203125"/>
      </g>
     </g>
    </g>
    <g id="xtick_2">
     <g id="line2d_2">
      <g>
       <use xlink:href="#m5005d82bf4" x="144.409802" y="307.584" style="stroke: #000000; stroke-width: 0.8"/>
      </g>
     </g>
     <g id="text_2">
      <!-- 0 -->
      <g transform="translate(141.409802 319.42775)scale(0.12 -0.12)">
       <defs>
        <path id="SimSun-30" d="M 225 2100 
Q 225 2825 450 3350 
Q 675 3875 1025 4125 
Q 1325 4325 1625 4325 
Q 2100 4325 2500 3825 
Q 2975 3225 2975 2150 
Q 2975 1425 2762 912 
Q 2550 400 2225 162 
Q 1900 -75 1575 -75 
Q 975 -75 575 650 
Q 225 1250 225 2100 
z
M 850 2025 
Q 850 1150 1050 600 
Q 1250 125 1600 125 
Q 1750 125 1937 275 
Q 2125 425 2225 775 
Q 2350 1325 2350 2300 
Q 2350 3025 2200 3500 
Q 2100 3875 1925 4025 
Q 1800 4125 1600 4125 
Q 1400 4125 1225 3925 
Q 1000 3675 925 3112 
Q 850 2550 850 2025 
z
" transform="scale(0.015625)"/>
       </defs>
       <use xlink:href="#SimSun-30"/>
      </g>
     </g>
    </g>
    <g id="xtick_3">
     <g id="line2d_3">
      <g>
       <use xlink:href="#m5005d82bf4" x="214.986877" y="307.584" style="stroke: #000000; stroke-width: 0.8"/>
      </g>
     </g>
     <g id="text_3">
      <!-- 5 -->
      <g transform="translate(211.986877 319.42775)scale(0.12 -0.12)">
       <use xlink:href="#SimSun-35"/>
      </g>
     </g>
    </g>
    <g id="xtick_4">
     <g id="line2d_4">
      <g>
       <use xlink:href="#m5005d82bf4" x="285.563953" y="307.584" style="stroke: #000000; stroke-width: 0.8"/>
      </g>
     </g>
     <g id="text_4">
      <!-- 10 -->
      <g transform="translate(279.563953 319.42775)scale(0.12 -0.12)">
       <defs>
        <path id="SimSun-31" d="M 750 3825 
L 1775 4325 
L 1875 4325 
L 1875 750 
Q 1875 400 1912 312 
Q 1950 225 2037 175 
Q 2125 125 2425 125 
L 2425 0 
L 825 0 
L 825 125 
Q 1125 125 1212 175 
Q 1300 225 1337 300 
Q 1375 375 1375 750 
L 1375 3025 
Q 1375 3500 1350 3625 
Q 1325 3725 1262 3775 
Q 1200 3825 1125 3825 
Q 1000 3825 800 3725 
L 750 3825 
z
" transform="scale(0.015625)"/>
       </defs>
       <use xlink:href="#SimSun-31"/>
       <use xlink:href="#SimSun-30" x="50"/>
      </g>
     </g>
    </g>
    <g id="xtick_5">
     <g id="line2d_5">
      <g>
       <use xlink:href="#m5005d82bf4" x="356.141028" y="307.584" style="stroke: #000000; stroke-width: 0.8"/>
      </g>
     </g>
     <g id="text_5">
      <!-- 15 -->
      <g transform="translate(350.141028 319.42775)scale(0.12 -0.12)">
       <use xlink:href="#SimSun-31"/>
       <use xlink:href="#SimSun-35" x="50"/>
      </g>
     </g>
    </g>
    <g id="text_6">
     <!-- Angle of Attack ($\mathrm{°}$) -->
     <g transform="translate(189.6 334.405875)scale(0.12 -0.12)">
      <defs>
       <path id="SimSun-41" d="M 2925 1425 
L 1300 1425 
L 1000 750 
Q 900 500 900 375 
Q 900 275 987 212 
Q 1075 150 1375 125 
L 1375 0 
L 50 0 
L 50 125 
Q 325 175 400 250 
Q 550 400 750 850 
L 2250 4325 
L 2350 4325 
L 3825 800 
Q 4000 375 4150 250 
Q 4300 125 4550 125 
L 4550 0 
L 2875 0 
L 2875 125 
Q 3125 125 3212 200 
Q 3300 275 3300 375 
Q 3300 525 3175 800 
L 2925 1425 
z
M 2850 1650 
L 2125 3375 
L 1375 1650 
L 2850 1650 
z
" transform="scale(0.015625)"/>
       <path id="SimSun-6e" d="M 1025 2350 
Q 1550 2950 2000 2950 
Q 2225 2950 2400 2837 
Q 2575 2725 2675 2450 
Q 2725 2250 2725 1875 
L 2725 650 
Q 2725 375 2775 275 
Q 2825 200 2900 162 
Q 2975 125 3175 125 
L 3175 0 
L 1750 0 
L 1750 125 
L 1825 125 
Q 2025 125 2100 175 
Q 2175 225 2200 350 
Q 2225 400 2225 650 
L 2225 1825 
Q 2225 2200 2125 2387 
Q 2025 2575 1775 2575 
Q 1400 2575 1025 2150 
L 1025 650 
Q 1025 350 1075 300 
Q 1125 200 1200 162 
Q 1275 125 1500 125 
L 1500 0 
L 75 0 
L 75 125 
L 150 125 
Q 375 125 450 225 
Q 525 325 525 650 
L 525 1700 
Q 525 2225 500 2337 
Q 475 2450 425 2487 
Q 375 2525 300 2525 
Q 200 2525 75 2475 
L 50 2600 
L 900 2950 
L 1025 2950 
L 1025 2350 
z
" transform="scale(0.015625)"/>
       <path id="SimSun-67" d="M 975 1050 
Q 700 1175 562 1400 
Q 425 1625 425 1900 
Q 425 2325 750 2637 
Q 1075 2950 1575 2950 
Q 1975 2950 2275 2750 
L 2875 2750 
Q 3025 2750 3037 2737 
Q 3050 2725 3075 2725 
Q 3075 2675 3075 2625 
Q 3075 2525 3075 2500 
Q 3050 2475 3037 2475 
Q 3025 2475 2875 2475 
L 2500 2475 
Q 2675 2250 2675 1900 
Q 2675 1500 2375 1212 
Q 2075 925 1550 925 
Q 1350 925 1125 975 
Q 975 875 925 787 
Q 875 700 875 625 
Q 875 575 937 525 
Q 1000 475 1150 450 
Q 1225 450 1575 425 
Q 2225 425 2400 375 
Q 2700 350 2875 175 
Q 3050 0 3050 -250 
Q 3050 -625 2725 -925 
Q 2225 -1375 1450 -1375 
Q 850 -1375 425 -1100 
Q 200 -950 200 -775 
Q 200 -700 225 -625 
Q 275 -525 450 -300 
Q 475 -275 775 25 
Q 600 125 537 200 
Q 475 275 475 375 
Q 475 475 562 625 
Q 650 775 975 1050 
z
M 1500 2800 
Q 1275 2800 1125 2612 
Q 975 2425 975 2050 
Q 975 1550 1175 1275 
Q 1350 1075 1600 1075 
Q 1825 1075 1975 1250 
Q 2125 1425 2125 1825 
Q 2125 2300 1925 2600 
Q 1750 2800 1500 2800 
z
M 925 0 
Q 800 -150 725 -287 
Q 650 -425 650 -550 
Q 650 -700 825 -800 
Q 1125 -1000 1725 -1000 
Q 2275 -1000 2550 -800 
Q 2825 -600 2825 -375 
Q 2825 -225 2650 -150 
Q 2500 -75 2025 -75 
Q 1325 -50 925 0 
z
" transform="scale(0.015625)"/>
       <path id="SimSun-6c" d="M 1175 4450 
L 1175 650 
Q 1175 375 1225 287 
Q 1275 200 1350 162 
Q 1425 125 1650 125 
L 1650 0 
L 250 0 
L 250 125 
Q 450 125 512 162 
Q 575 200 625 287 
Q 675 375 675 650 
L 675 3250 
Q 675 3725 650 3837 
Q 625 3950 575 3987 
Q 525 4025 450 4025 
Q 375 4025 250 3975 
L 200 4100 
L 1050 4450 
L 1175 4450 
z
" transform="scale(0.015625)"/>
       <path id="SimSun-65" d="M 675 1775 
Q 675 1150 1000 775 
Q 1300 425 1725 425 
Q 2000 425 2212 575 
Q 2425 725 2575 1100 
L 2650 1050 
Q 2600 625 2287 275 
Q 1975 -75 1500 -75 
Q 975 -75 612 325 
Q 250 725 250 1400 
Q 250 2125 625 2537 
Q 1000 2950 1550 2950 
Q 2050 2950 2350 2637 
Q 2650 2325 2650 1775 
L 675 1775 
z
M 675 1975 
L 2000 1975 
Q 2000 2250 1950 2350 
Q 1875 2525 1712 2625 
Q 1550 2725 1375 2725 
Q 1125 2725 925 2525 
Q 725 2325 675 1975 
z
" transform="scale(0.015625)"/>
       <path id="SimSun-20" transform="scale(0.015625)"/>
       <path id="SimSun-6f" d="M 1600 2950 
Q 2250 2950 2650 2450 
Q 2975 2025 2975 1475 
Q 2975 1100 2787 712 
Q 2600 325 2287 125 
Q 1975 -75 1575 -75 
Q 925 -75 550 425 
Q 225 875 225 1400 
Q 225 1800 412 2187 
Q 600 2575 925 2762 
Q 1250 2950 1600 2950 
z
M 1500 2750 
Q 1350 2750 1175 2650 
Q 1000 2550 900 2300 
Q 800 2050 800 1675 
Q 800 1050 1050 587 
Q 1300 125 1700 125 
Q 2000 125 2200 375 
Q 2400 625 2400 1250 
Q 2400 2000 2075 2450 
Q 1850 2750 1500 2750 
z
" transform="scale(0.015625)"/>
       <path id="SimSun-66" d="M 1325 2650 
L 1325 750 
Q 1325 350 1400 250 
Q 1525 125 1725 125 
L 1975 125 
L 1975 0 
L 275 0 
L 275 125 
L 400 125 
Q 525 125 625 187 
Q 725 250 762 350 
Q 800 450 800 750 
L 800 2650 
L 250 2650 
L 250 2875 
L 800 2875 
L 800 3050 
Q 800 3475 937 3775 
Q 1075 4075 1362 4262 
Q 1650 4450 2000 4450 
Q 2325 4450 2600 4225 
Q 2775 4075 2775 3900 
Q 2775 3825 2700 3737 
Q 2625 3650 2525 3650 
Q 2450 3650 2375 3700 
Q 2300 3750 2187 3925 
Q 2075 4100 1975 4150 
Q 1875 4225 1750 4225 
Q 1600 4225 1500 4137 
Q 1400 4050 1362 3900 
Q 1325 3750 1325 3075 
L 1325 2875 
L 2050 2875 
L 2050 2650 
L 1325 2650 
z
" transform="scale(0.015625)"/>
       <path id="SimSun-74" d="M 1025 3800 
L 1025 2875 
L 1700 2875 
L 1700 2650 
L 1025 2650 
L 1025 800 
Q 1025 500 1112 412 
Q 1200 325 1325 325 
Q 1425 325 1525 387 
Q 1625 450 1675 575 
L 1800 575 
Q 1675 275 1475 112 
Q 1275 -50 1075 -50 
Q 925 -50 787 37 
Q 650 125 587 262 
Q 525 400 525 725 
L 525 2650 
L 75 2650 
L 75 2750 
Q 225 2825 412 2987 
Q 600 3150 725 3375 
Q 800 3500 925 3800 
L 1025 3800 
z
" transform="scale(0.015625)"/>
       <path id="SimSun-61" d="M 1825 425 
Q 1375 75 1275 25 
Q 1100 -50 900 -50 
Q 625 -50 425 150 
Q 225 350 225 675 
Q 225 900 325 1050 
Q 450 1250 762 1437 
Q 1075 1625 1825 1900 
L 1825 2000 
Q 1825 2450 1687 2600 
Q 1550 2750 1300 2750 
Q 1100 2750 975 2650 
Q 850 2550 850 2400 
L 875 2225 
Q 875 2075 800 2000 
Q 725 1925 600 1925 
Q 475 1925 412 2012 
Q 350 2100 350 2225 
Q 350 2500 625 2725 
Q 900 2950 1375 2950 
Q 1775 2950 2000 2825 
Q 2200 2725 2275 2525 
Q 2350 2375 2350 1975 
L 2350 1000 
Q 2350 575 2362 487 
Q 2375 400 2412 375 
Q 2450 350 2500 350 
Q 2550 350 2575 350 
Q 2650 400 2825 600 
L 2825 425 
Q 2475 -50 2150 -50 
Q 2000 -50 1912 50 
Q 1825 150 1825 425 
z
M 1825 625 
L 1825 1700 
Q 1350 1525 1225 1450 
Q 975 1300 862 1150 
Q 750 1000 750 825 
Q 750 600 887 450 
Q 1025 300 1200 300 
Q 1425 300 1825 625 
z
" transform="scale(0.015625)"/>
       <path id="SimSun-63" d="M 2625 1100 
Q 2525 525 2187 225 
Q 1850 -75 1425 -75 
Q 950 -75 587 325 
Q 225 725 225 1425 
Q 225 2100 625 2525 
Q 1025 2950 1575 2950 
Q 2000 2950 2275 2725 
Q 2550 2500 2550 2250 
Q 2550 2150 2475 2075 
Q 2400 2000 2250 2000 
Q 2075 2000 1975 2125 
Q 1925 2175 1912 2362 
Q 1900 2550 1775 2650 
Q 1675 2750 1475 2750 
Q 1175 2750 975 2500 
Q 725 2200 725 1700 
Q 725 1175 975 787 
Q 1225 400 1650 400 
Q 1975 400 2200 600 
Q 2375 750 2550 1125 
L 2625 1100 
z
" transform="scale(0.015625)"/>
       <path id="SimSun-6b" d="M 1050 4450 
L 1050 1600 
L 1775 2250 
Q 2000 2475 2050 2525 
Q 2075 2575 2075 2600 
Q 2075 2675 2025 2712 
Q 1975 2750 1850 2775 
L 1850 2875 
L 3100 2875 
L 3100 2775 
Q 2825 2750 2662 2687 
Q 2500 2625 2300 2425 
L 1550 1750 
L 2300 825 
Q 2600 450 2700 325 
Q 2850 200 2975 150 
Q 3050 125 3250 125 
L 3250 0 
L 1850 0 
L 1850 125 
Q 1975 125 2012 150 
Q 2050 175 2050 250 
Q 2050 325 1925 475 
L 1050 1600 
L 1050 650 
Q 1050 375 1087 287 
Q 1125 200 1200 162 
Q 1275 125 1500 125 
L 1500 0 
L 50 0 
L 50 125 
Q 275 125 375 175 
Q 450 200 475 275 
Q 525 375 525 625 
L 525 3225 
Q 525 3725 500 3837 
Q 475 3950 425 4000 
Q 375 4050 300 4050 
Q 250 4050 100 3975 
L 50 4100 
L 900 4450 
L 1050 4450 
z
" transform="scale(0.015625)"/>
       <path id="SimSun-28" d="M 2000 -1250 
L 2000 -1375 
Q 1525 -1125 1200 -800 
Q 750 -350 512 262 
Q 275 875 275 1525 
Q 275 2500 750 3300 
Q 1225 4100 2000 4450 
L 2000 4325 
Q 1600 4100 1350 3737 
Q 1100 3375 987 2800 
Q 875 2225 875 1625 
Q 875 950 975 400 
Q 1050 -25 1162 -287 
Q 1275 -550 1475 -787 
Q 1675 -1025 2000 -1250 
z
" transform="scale(0.015625)"/>
       <path id="STIXGeneral-Regular-b0" d="M 2195 3411 
Q 2195 3027 1929 2761 
Q 1664 2496 1280 2496 
Q 890 2496 627 2761 
Q 365 3027 365 3418 
Q 365 3802 633 4064 
Q 902 4326 1293 4326 
Q 1664 4326 1929 4057 
Q 2195 3789 2195 3411 
z
M 1946 3418 
Q 1946 3699 1744 3904 
Q 1542 4109 1267 4109 
Q 1005 4109 809 3901 
Q 614 3693 614 3411 
Q 614 3123 809 2918 
Q 1005 2714 1280 2714 
Q 1555 2714 1750 2922 
Q 1946 3130 1946 3418 
z
" transform="scale(0.015625)"/>
       <path id="SimSun-29" d="M 150 4325 
L 150 4450 
Q 625 4200 925 3900 
Q 1375 3425 1625 2812 
Q 1875 2200 1875 1550 
Q 1875 575 1400 -225 
Q 925 -1025 150 -1375 
L 150 -1250 
Q 525 -1025 775 -662 
Q 1025 -300 1150 262 
Q 1275 825 1275 1450 
Q 1275 2125 1175 2675 
Q 1075 3100 962 3362 
Q 850 3625 662 3862 
Q 475 4100 150 4325 
z
" transform="scale(0.015625)"/>
      </defs>
      <use xlink:href="#SimSun-41" transform="translate(0 0.46875)"/>
      <use xlink:href="#SimSun-6e" transform="translate(72.265625 0.46875)"/>
      <use xlink:href="#SimSun-67" transform="translate(122.265625 0.46875)"/>
      <use xlink:href="#SimSun-6c" transform="translate(172.265625 0.46875)"/>
      <use xlink:href="#SimSun-65" transform="translate(200 0.46875)"/>
      <use xlink:href="#SimSun-20" transform="translate(244.53125 0.46875)"/>
      <use xlink:href="#SimSun-6f" transform="translate(269.53125 0.46875)"/>
      <use xlink:href="#SimSun-66" transform="translate(319.53125 0.46875)"/>
      <use xlink:href="#SimSun-20" transform="translate(352.734375 0.46875)"/>
      <use xlink:href="#SimSun-41" transform="translate(377.734375 0.46875)"/>
      <use xlink:href="#SimSun-74" transform="translate(450 0.46875)"/>
      <use xlink:href="#SimSun-74" transform="translate(477.734375 0.46875)"/>
      <use xlink:href="#SimSun-61" transform="translate(505.46875 0.46875)"/>
      <use xlink:href="#SimSun-63" transform="translate(550 0.46875)"/>
      <use xlink:href="#SimSun-6b" transform="translate(594.53125 0.46875)"/>
      <use xlink:href="#SimSun-20" transform="translate(644.53125 0.46875)"/>
      <use xlink:href="#SimSun-28" transform="translate(669.53125 0.46875)"/>
      <use xlink:href="#STIXGeneral-Regular-b0" transform="translate(702.734375 0.46875)"/>
      <use xlink:href="#SimSun-29" transform="translate(742.73436 0.46875)"/>
     </g>
    </g>
   </g>
   <g id="matplotlib.axis_2">
    <g id="ytick_1">
     <g id="line2d_6">
      <defs>
       <path id="m27ef18e141" d="M 0 0 
L 3.5 0 
" style="stroke: #000000; stroke-width: 0.8"/>
      </defs>
      <g>
       <use xlink:href="#m27ef18e141" x="57.6" y="297.605377" style="stroke: #000000; stroke-width: 0.8"/>
      </g>
     </g>
     <g id="text_7">
      <!-- -0.25 -->
      <g transform="translate(29.115625 301.777252)scale(0.12 -0.12)">
       <defs>
        <path id="SimSun-2e" d="M 800 600 
Q 950 600 1050 500 
Q 1150 400 1150 250 
Q 1150 125 1050 25 
Q 950 -75 800 -75 
Q 650 -75 550 25 
Q 450 125 450 250 
Q 450 400 550 500 
Q 650 600 800 600 
z
" transform="scale(0.015625)"/>
        <path id="SimSun-32" d="M 2925 825 
L 2650 0 
L 150 0 
L 150 125 
Q 1250 1125 1700 1762 
Q 2150 2400 2150 2925 
Q 2150 3325 1900 3587 
Q 1650 3850 1300 3850 
Q 1000 3850 750 3662 
Q 500 3475 375 3125 
L 250 3125 
Q 350 3700 662 4012 
Q 975 4325 1475 4325 
Q 1975 4325 2325 4000 
Q 2675 3675 2675 3225 
Q 2675 2900 2525 2575 
Q 2300 2075 1775 1500 
Q 1000 650 800 475 
L 1900 475 
Q 2250 475 2387 500 
Q 2525 525 2637 600 
Q 2750 675 2825 825 
L 2925 825 
z
" transform="scale(0.015625)"/>
       </defs>
       <use xlink:href="#SimSun-2d"/>
       <use xlink:href="#SimSun-30" x="33.203125"/>
       <use xlink:href="#SimSun-2e" x="83.203125"/>
       <use xlink:href="#SimSun-32" x="108.203125"/>
       <use xlink:href="#SimSun-35" x="158.203125"/>
      </g>
     </g>
    </g>
    <g id="ytick_2">
     <g id="line2d_7">
      <g>
       <use xlink:href="#m27ef18e141" x="57.6" y="263.143616" style="stroke: #000000; stroke-width: 0.8"/>
      </g>
     </g>
     <g id="text_8">
      <!-- 0.00 -->
      <g transform="translate(33.1 267.315491)scale(0.12 -0.12)">
       <use xlink:href="#SimSun-30"/>
       <use xlink:href="#SimSun-2e" x="50"/>
       <use xlink:href="#SimSun-30" x="75"/>
       <use xlink:href="#SimSun-30" x="125"/>
      </g>
     </g>
    </g>
    <g id="ytick_3">
     <g id="line2d_8">
      <g>
       <use xlink:href="#m27ef18e141" x="57.6" y="228.681856" style="stroke: #000000; stroke-width: 0.8"/>
      </g>
     </g>
     <g id="text_9">
      <!-- 0.25 -->
      <g transform="translate(33.1 232.853731)scale(0.12 -0.12)">
       <use xlink:href="#SimSun-30"/>
       <use xlink:href="#SimSun-2e" x="50"/>
       <use xlink:href="#SimSun-32" x="75"/>
       <use xlink:href="#SimSun-35" x="125"/>
      </g>
     </g>
    </g>
    <g id="ytick_4">
     <g id="line2d_9">
      <g>
       <use xlink:href="#m27ef18e141" x="57.6" y="194.220095" style="stroke: #000000; stroke-width: 0.8"/>
      </g>
     </g>
     <g id="text_10">
      <!-- 0.50 -->
      <g transform="translate(33.1 198.39197)scale(0.12 -0.12)">
       <use xlink:href="#SimSun-30"/>
       <use xlink:href="#SimSun-2e" x="50"/>
       <use xlink:href="#SimSun-35" x="75"/>
       <use xlink:href="#SimSun-30" x="125"/>
      </g>
     </g>
    </g>
    <g id="ytick_5">
     <g id="line2d_10">
      <g>
       <use xlink:href="#m27ef18e141" x="57.6" y="159.758335" style="stroke: #000000; stroke-width: 0.8"/>
      </g>
     </g>
     <g id="text_11">
      <!-- 0.75 -->
      <g transform="translate(33.1 163.93021)scale(0.12 -0.12)">
       <defs>
        <path id="SimSun-37" d="M 650 4250 
L 2925 4250 
L 2925 4125 
L 1500 -75 
L 1150 -75 
L 2425 3725 
L 1250 3725 
Q 900 3725 750 3650 
Q 500 3500 325 3200 
L 250 3225 
L 650 4250 
z
" transform="scale(0.015625)"/>
       </defs>
       <use xlink:href="#SimSun-30"/>
       <use xlink:href="#SimSun-2e" x="50"/>
       <use xlink:href="#SimSun-37" x="75"/>
       <use xlink:href="#SimSun-35" x="125"/>
      </g>
     </g>
    </g>
    <g id="ytick_6">
     <g id="line2d_11">
      <g>
       <use xlink:href="#m27ef18e141" x="57.6" y="125.296575" style="stroke: #000000; stroke-width: 0.8"/>
      </g>
     </g>
     <g id="text_12">
      <!-- 1.00 -->
      <g transform="translate(33.1 129.46845)scale(0.12 -0.12)">
       <use xlink:href="#SimSun-31"/>
       <use xlink:href="#SimSun-2e" x="50"/>
       <use xlink:href="#SimSun-30" x="75"/>
       <use xlink:href="#SimSun-30" x="125"/>
      </g>
     </g>
    </g>
    <g id="ytick_7">
     <g id="line2d_12">
      <g>
       <use xlink:href="#m27ef18e141" x="57.6" y="90.834814" style="stroke: #000000; stroke-width: 0.8"/>
      </g>
     </g>
     <g id="text_13">
      <!-- 1.25 -->
      <g transform="translate(33.1 95.006689)scale(0.12 -0.12)">
       <use xlink:href="#SimSun-31"/>
       <use xlink:href="#SimSun-2e" x="50"/>
       <use xlink:href="#SimSun-32" x="75"/>
       <use xlink:href="#SimSun-35" x="125"/>
      </g>
     </g>
    </g>
    <g id="ytick_8">
     <g id="line2d_13">
      <g>
       <use xlink:href="#m27ef18e141" x="57.6" y="56.373054" style="stroke: #000000; stroke-width: 0.8"/>
      </g>
     </g>
     <g id="text_14">
      <!-- 1.50 -->
      <g transform="translate(33.1 60.544929)scale(0.12 -0.12)">
       <use xlink:href="#SimSun-31"/>
       <use xlink:href="#SimSun-2e" x="50"/>
       <use xlink:href="#SimSun-35" x="75"/>
       <use xlink:href="#SimSun-30" x="125"/>
      </g>
     </g>
    </g>
    <g id="text_15">
     <!-- $\mathrm{C_L}$ -->
     <g transform="translate(22.5375 181.488)rotate(-90)scale(0.12 -0.12)">
      <defs>
       <path id="STIXGeneral-Regular-43" d="M 3930 838 
L 4051 723 
Q 3482 -90 2304 -90 
Q 1376 -90 794 480 
Q 179 1082 179 2080 
Q 179 3014 755 3661 
Q 1357 4326 2310 4326 
Q 2720 4326 3072 4230 
Q 3475 4115 3514 4115 
Q 3725 4115 3782 4326 
L 3910 4326 
L 3968 2874 
L 3821 2874 
Q 3718 3334 3488 3584 
Q 3034 4070 2458 4070 
Q 1747 4070 1334 3548 
Q 922 3027 922 2182 
Q 922 1152 1382 653 
Q 1811 192 2522 192 
Q 2944 192 3251 339 
Q 3558 486 3930 838 
z
" transform="scale(0.015625)"/>
       <path id="STIXGeneral-Regular-4c" d="M 3827 1114 
L 3520 0 
L 77 0 
L 77 122 
Q 429 141 531 256 
Q 634 371 634 736 
L 634 3494 
Q 634 3872 541 3981 
Q 448 4090 77 4115 
L 77 4237 
L 1888 4237 
L 1888 4115 
Q 1498 4090 1392 3984 
Q 1286 3878 1286 3507 
L 1286 538 
Q 1286 358 1398 304 
Q 1510 250 1862 250 
L 2310 250 
Q 3085 250 3392 640 
Q 3520 813 3661 1114 
L 3827 1114 
z
" transform="scale(0.015625)"/>
      </defs>
      <use xlink:href="#STIXGeneral-Regular-43" transform="translate(0 0.40625)"/>
      <use xlink:href="#STIXGeneral-Regular-4c" transform="translate(68.274997 -13.09375)scale(0.7)"/>
     </g>
    </g>
   </g>
   <g id="line2d_14">
    <path d="M 73.832727 294.641161 
L 77.108492 291.564644 
L 80.384016 288.464421 
L 83.659302 285.340493 
L 86.934348 282.192859 
L 90.209154 279.021521 
L 93.483721 275.826477 
L 96.75806 272.609027 
L 100.032238 269.375972 
L 103.306262 266.128295 
L 106.580134 262.865994 
L 109.853855 259.589221 
L 113.127466 256.302064 
L 116.400986 253.006349 
L 119.674416 249.702076 
L 122.947756 246.389246 
L 126.221023 243.069603 
L 129.494243 239.745585 
L 132.767417 236.417207 
L 136.040545 233.084471 
L 139.313624 229.747195 
L 142.586647 226.40464 
L 145.859612 223.056725 
L 149.132519 219.70345 
L 152.405371 216.345033 
L 155.678208 212.985216 
L 158.951045 209.62535 
L 162.223881 206.265435 
L 165.496717 202.905471 
L 168.769579 199.547938 
L 172.042496 196.195583 
L 175.315469 192.848409 
L 178.588498 189.506414 
L 181.86159 186.170396 
L 185.134775 182.842989 
L 188.408053 179.524404 
L 191.681425 176.214641 
L 194.954894 172.913942 
L 198.228488 169.625225 
L 201.502217 166.34934 
L 204.776081 163.086287 
L 208.05008 159.836071 
L 211.324245 156.601893 
L 214.598603 153.386526 
L 217.873155 150.189969 
L 221.1479 147.012224 
L 224.42285 143.85468 
L 227.69804 140.721024 
L 230.97347 137.611454 
L 234.24914 134.525969 
L 237.525058 131.465361 
L 240.801281 128.436398 
L 244.077822 125.440629 
L 247.354681 122.478054 
L 250.631859 119.548713 
L 253.909381 116.656573 
L 257.187266 113.804274 
L 260.465513 110.991814 
L 263.744121 108.219195 
L 267.023115 105.490137 
L 270.302542 102.812236 
L 273.582404 100.185718 
L 276.862699 97.610581 
L 280.143435 95.088164 
L 283.424644 92.626511 
L 286.706331 90.226967 
L 289.988497 87.889531 
L 293.271144 85.614644 
L 296.554326 83.417069 
L 299.838071 81.304006 
L 303.122379 79.275455 
L 306.407251 77.331417 
L 309.692674 75.476842 
L 312.978632 73.718942 
L 316.265126 72.057777 
L 319.552155 70.493349 
L 322.839735 69.037687 
L 326.127928 67.739389 
L 329.41674 66.603589 
L 332.706172 65.630289 
L 335.996205 64.821751 
L 339.286563 64.211068 
L 342.577155 63.809165 
L 345.867981 63.616043 
L 349.159041 63.631698 
L 352.450023 63.847666 
L 355.740644 64.256215 
L 359.030903 64.857344 
L 362.320801 65.651054 
L 365.610331 66.611433 
L 368.89948 67.671348 
L 372.188247 68.827354 
L 375.476632 70.079454 
L 378.764647 71.42344 
L 382.052387 72.827015 
L 385.339873 74.283418 
L 388.627104 75.792649 
L 391.914082 77.354708 
L 395.200804 78.969595 
L 398.487273 80.63731 
" clip-path="url(#p02789dd127)" style="fill: none; stroke: #1f77b4; stroke-width: 1.5; stroke-linecap: square"/>
   </g>
   <g id="line2d_15">
    <path d="M 73.832727 295.119437 
L 77.108826 292.003272 
L 80.384674 288.86259 
L 83.660271 285.697391 
L 86.935617 282.507676 
L 90.210712 279.293444 
L 93.485556 276.054695 
L 96.760162 272.792798 
L 100.0346 269.514897 
L 103.308878 266.222019 
L 106.582998 262.914166 
L 109.856961 259.591502 
L 113.130813 256.258444 
L 116.404575 252.916962 
L 119.678246 249.567055 
L 122.951827 246.208724 
L 126.225335 242.843551 
L 129.498792 239.473738 
L 132.772199 236.099299 
L 136.045556 232.720233 
L 139.31886 229.33627 
L 142.592099 225.946297 
L 145.865271 222.550196 
L 149.138377 219.147967 
L 152.411418 215.739816 
L 155.684432 212.329269 
L 158.957435 208.917591 
L 162.230425 205.504783 
L 165.503403 202.090843 
L 168.776395 198.678281 
L 172.049433 195.269855 
L 175.322516 191.865567 
L 178.595644 188.465418 
L 181.868826 185.070129 
L 185.142085 181.682084 
L 188.415426 178.301466 
L 191.688846 174.928278 
L 194.96235 171.562708 
L 198.235959 168.207 
L 201.509681 164.861805 
L 204.783515 161.527121 
L 208.057463 158.202953 
L 211.331551 154.892121 
L 214.605806 151.597044 
L 217.880227 148.317722 
L 221.154814 145.054156 
L 224.429583 141.807973 
L 227.704574 138.583454 
L 230.979791 135.380826 
L 234.255233 132.200087 
L 237.530905 129.04192 
L 240.806861 125.912104 
L 244.083111 122.811951 
L 247.359656 119.741463 
L 250.636496 116.700691 
L 253.913671 113.694842 
L 257.19121 110.727358 
L 260.469111 107.798239 
L 263.747376 104.907486 
L 267.026027 102.058699 
L 270.305116 99.259208 
L 273.584643 96.509227 
L 276.864609 93.808756 
L 280.145021 91.159454 
L 283.425934 88.571277 
L 286.707357 86.045885 
L 289.98929 83.58328 
L 293.271733 81.183931 
L 296.554756 78.863643 
L 299.838391 76.630118 
L 303.122638 74.483357 
L 306.407497 72.423358 
L 309.692969 70.457497 
L 312.979059 68.596514 
L 316.265765 66.8405 
L 319.553089 65.189454 
L 322.84105 63.657684 
L 326.12973 62.302909 
L 329.419139 61.131216 
L 332.709276 60.142604 
L 336.000117 59.340042 
L 339.29129 58.766606 
L 342.582673 58.436466 
L 345.874267 58.349621 
L 349.166071 58.506064 
L 352.457678 58.892893 
L 355.748717 59.498415 
L 359.039188 60.322629 
L 362.329091 61.365536 
L 365.618433 62.59756 
L 368.907229 63.942696 
L 372.195482 65.397108 
L 375.48319 66.960796 
L 378.77038 68.627839 
L 382.057244 70.353127 
L 385.343821 72.127276 
L 388.630113 73.950289 
L 391.916119 75.822164 
L 395.201839 77.742901 
L 398.487273 79.712502 
" clip-path="url(#p02789dd127)" style="fill: none; stroke: #ff7f0e; stroke-width: 1.5; stroke-linecap: square"/>
   </g>
   <g id="line2d_16">
    <path d="M 73.832727 295.35257 
L 77.108992 292.217899 
L 80.384998 289.058211 
L 83.660747 285.873507 
L 86.936239 282.663787 
L 90.211472 279.429049 
L 93.486448 276.169295 
L 96.76118 272.885959 
L 100.035741 269.586517 
L 103.310142 266.272045 
L 106.584382 262.942543 
L 109.858464 259.598176 
L 113.132433 256.243317 
L 116.40631 252.879914 
L 119.680094 249.507967 
L 122.953787 246.127476 
L 126.227403 242.740004 
L 129.500968 239.347719 
L 132.77448 235.950635 
L 136.04794 232.548752 
L 139.321345 229.141802 
L 142.594682 225.728688 
L 145.86795 222.309295 
L 149.14115 218.88362 
L 152.414283 215.451865 
L 155.687386 212.017406 
L 158.960473 208.581454 
L 162.233543 205.144007 
L 165.506597 201.705066 
L 168.779661 198.267075 
L 172.052765 194.832716 
L 175.325909 191.401989 
L 178.599093 187.974894 
L 181.872324 184.552056 
L 185.145624 181.135525 
L 188.418995 177.725461 
L 191.692436 174.321863 
L 194.96595 170.924902 
L 198.239557 167.536585 
L 201.513265 164.157491 
L 204.787072 160.787618 
L 208.060979 157.426971 
L 211.335012 154.078102 
L 214.609195 150.74319 
L 217.883526 147.422235 
L 221.158006 144.115238 
L 224.432653 140.823943 
L 227.707511 137.552928 
L 230.982584 134.302432 
L 234.25787 131.072455 
L 237.533376 127.863613 
L 240.80915 124.681113 
L 244.085202 121.526135 
L 247.361532 118.398678 
L 250.638141 115.298806 
L 253.915079 112.232557 
L 257.192381 109.203919 
L 260.470046 106.212893 
L 263.748073 103.259477 
L 267.026484 100.346624 
L 270.305318 97.480331 
L 273.584577 94.660773 
L 276.86426 91.887951 
L 280.144381 89.164031 
L 283.425023 86.502024 
L 286.706201 83.9041 
L 289.987914 81.370259 
L 293.270165 78.900962 
L 296.553019 76.511668 
L 299.83651 74.209924 
L 303.120637 71.995731 
L 306.4054 69.869088 
L 309.690808 67.838163 
L 312.976872 65.914877 
L 316.263592 64.099331 
L 319.550968 62.391526 
L 322.839026 60.807166 
L 326.127869 59.409749 
L 329.417506 58.205989 
L 332.707939 57.195885 
L 335.999138 56.382704 
L 339.29068 55.813928 
L 342.582426 55.505194 
L 345.874376 55.456501 
L 349.16653 55.66784 
L 352.458427 56.124221 
L 355.749649 56.812064 
L 359.040197 57.731368 
L 362.330071 58.882133 
L 365.619296 60.230741 
L 368.907938 61.69086 
L 372.196001 63.258142 
L 375.483484 64.932587 
L 378.770424 66.707099 
L 382.057095 68.52763 
L 385.343554 70.382943 
L 388.629801 72.273038 
L 391.915837 74.197915 
L 395.201661 76.157574 
L 398.487273 78.152015 
" clip-path="url(#p02789dd127)" style="fill: none; stroke: #2ca02c; stroke-width: 1.5; stroke-linecap: square"/>
   </g>
   <g id="line2d_17">
    <path d="M 73.832727 295.488 
L 77.109131 292.343501 
L 80.385271 289.173416 
L 83.661146 285.977745 
L 86.936756 282.756488 
L 90.212102 279.509646 
L 93.487183 276.237217 
L 96.762015 272.940726 
L 100.036674 269.628107 
L 103.311174 266.300502 
L 106.585512 262.95791 
L 109.859692 259.600492 
L 113.133758 256.232522 
L 116.40773 252.8559 
L 119.681608 249.470625 
L 122.955393 246.076698 
L 126.229101 242.675676 
L 129.502754 239.269716 
L 132.776354 235.858832 
L 136.0499 232.443022 
L 139.323389 229.022034 
L 142.59681 225.594824 
L 145.870161 222.161283 
L 149.143443 218.72141 
L 152.416657 215.275396 
L 155.689839 211.826447 
L 158.963 208.375706 
L 162.236142 204.923173 
L 165.509264 201.46885 
L 168.782394 198.015186 
L 172.05556 194.564862 
L 175.328763 191.117877 
L 178.602003 187.674232 
L 181.875286 184.234476 
L 185.148632 180.800403 
L 188.422041 177.37215 
L 191.695515 173.949719 
L 194.969054 170.533269 
L 198.242679 167.124658 
L 201.516394 163.724423 
L 204.790202 160.332561 
L 208.0641 156.949079 
L 211.338115 153.576368 
L 214.612267 150.216469 
L 217.886558 146.869382 
L 221.160986 143.535105 
L 224.435569 140.215346 
L 227.710352 136.914562 
L 230.985338 133.632988 
L 234.260525 130.370622 
L 237.535922 127.128133 
L 240.81158 123.911149 
L 244.087512 120.720941 
L 247.363718 117.557509 
L 250.640198 114.420913 
L 253.917 111.316774 
L 257.194156 108.248797 
L 260.471665 105.216981 
L 263.749529 102.221327 
L 267.027769 99.265046 
L 270.306434 96.354659 
L 273.585523 93.490354 
L 276.865037 90.672132 
L 280.144992 87.902191 
L 283.425473 85.193724 
L 286.706496 82.548931 
L 289.988061 79.967812 
L 293.27017 77.450858 
L 296.5529 75.014617 
L 299.836288 72.667166 
L 303.120335 70.408505 
L 306.405041 68.238634 
L 309.690414 66.166018 
L 312.976469 64.203013 
L 316.263206 62.349726 
L 319.550624 60.606157 
L 322.838752 58.988439 
L 326.127702 57.561809 
L 329.417486 56.333171 
L 332.708103 55.302523 
L 335.999523 54.473525 
L 339.291296 53.899354 
L 342.583275 53.597512 
L 345.875459 53.568 
L 349.167848 53.810807 
L 352.459946 54.308258 
L 355.751303 55.044363 
L 359.04192 56.019121 
L 362.331795 57.232533 
L 365.620966 58.649252 
L 368.90952 60.178662 
L 372.197463 61.816215 
L 375.484795 63.561911 
L 378.771555 65.408446 
L 382.058041 67.300272 
L 385.344313 69.225856 
L 388.630372 71.1852 
L 391.916219 73.178302 
L 395.201852 75.205163 
L 398.487273 77.265782 
" clip-path="url(#p02789dd127)" style="fill: none; stroke: #d62728; stroke-width: 1.5; stroke-linecap: square"/>
   </g>
   <g id="patch_3">
    <path d="M 57.6 307.584 
L 57.6 41.472 
" style="fill: none; stroke: #000000; stroke-width: 0.8; stroke-linejoin: miter; stroke-linecap: square"/>
   </g>
   <g id="patch_4">
    <path d="M 414.72 307.584 
L 414.72 41.472 
" style="fill: none; stroke: #000000; stroke-width: 0.8; stroke-linejoin: miter; stroke-linecap: square"/>
   </g>
   <g id="patch_5">
    <path d="M 57.6 307.584 
L 414.72 307.584 
" style="fill: none; stroke: #000000; stroke-width: 0.8; stroke-linejoin: miter; stroke-linecap: square"/>
   </g>
   <g id="patch_6">
    <path d="M 57.6 41.472 
L 414.72 41.472 
" style="fill: none; stroke: #000000; stroke-width: 0.8; stroke-linejoin: miter; stroke-linecap: square"/>
   </g>
   <g id="legend_1">
    <g id="line2d_18">
     <path d="M 68.4 56.472 
L 80.4 56.472 
L 92.4 56.472 
" style="fill: none; stroke: #1f77b4; stroke-width: 1.5; stroke-linecap: square"/>
    </g>
    <g id="text_16">
     <!-- Ma=0.2 -->
     <g transform="translate(102 60.672)scale(0.12 -0.12)">
      <defs>
       <path id="SimSun-4d" d="M 2625 0 
L 975 3575 
L 975 725 
Q 975 350 1075 250 
Q 1175 125 1425 125 
L 1575 125 
L 1575 0 
L 100 0 
L 100 125 
L 250 125 
Q 525 125 650 275 
Q 700 375 700 725 
L 700 3500 
Q 700 3775 650 3900 
Q 600 4000 487 4062 
Q 375 4125 100 4125 
L 100 4250 
L 1300 4250 
L 2850 925 
L 4350 4250 
L 5550 4250 
L 5550 4125 
L 5400 4125 
Q 5150 4125 5025 3950 
Q 4950 3850 4950 3500 
L 4950 725 
Q 4950 350 5050 250 
Q 5150 125 5400 125 
L 5550 125 
L 5550 0 
L 3750 0 
L 3750 125 
L 3900 125 
Q 4175 125 4300 275 
Q 4350 375 4350 725 
L 4350 3575 
L 2725 0 
L 2625 0 
z
" transform="scale(0.015625)"/>
       <path id="SimSun-3d" d="M 125 2750 
L 3500 2750 
L 3500 2500 
L 125 2500 
L 125 2750 
z
M 125 1750 
L 3500 1750 
L 3500 1475 
L 125 1475 
L 125 1750 
z
" transform="scale(0.015625)"/>
      </defs>
      <use xlink:href="#SimSun-4d"/>
      <use xlink:href="#SimSun-61" x="89.0625"/>
      <use xlink:href="#SimSun-3d" x="133.59375"/>
      <use xlink:href="#SimSun-30" x="189.84375"/>
      <use xlink:href="#SimSun-2e" x="239.84375"/>
      <use xlink:href="#SimSun-32" x="264.84375"/>
     </g>
    </g>
    <g id="line2d_19">
     <path d="M 68.4 73.450125 
L 80.4 73.450125 
L 92.4 73.450125 
" style="fill: none; stroke: #ff7f0e; stroke-width: 1.5; stroke-linecap: square"/>
    </g>
    <g id="text_17">
     <!-- Ma=0.4 -->
     <g transform="translate(102 77.650125)scale(0.12 -0.12)">
      <defs>
       <path id="SimSun-34" d="M 2975 1575 
L 2975 1125 
L 2400 1125 
L 2400 0 
L 1900 0 
L 1900 1125 
L 100 1125 
L 100 1525 
L 2075 4325 
L 2400 4325 
L 2400 1575 
L 2975 1575 
z
M 1900 1575 
L 1900 3675 
L 400 1575 
L 1900 1575 
z
" transform="scale(0.015625)"/>
      </defs>
      <use xlink:href="#SimSun-4d"/>
      <use xlink:href="#SimSun-61" x="89.0625"/>
      <use xlink:href="#SimSun-3d" x="133.59375"/>
      <use xlink:href="#SimSun-30" x="189.84375"/>
      <use xlink:href="#SimSun-2e" x="239.84375"/>
      <use xlink:href="#SimSun-34" x="264.84375"/>
     </g>
    </g>
    <g id="line2d_20">
     <path d="M 68.4 90.42825 
L 80.4 90.42825 
L 92.4 90.42825 
" style="fill: none; stroke: #2ca02c; stroke-width: 1.5; stroke-linecap: square"/>
    </g>
    <g id="text_18">
     <!-- Ma=0.6 -->
     <g transform="translate(102 94.62825)scale(0.12 -0.12)">
      <defs>
       <path id="SimSun-36" d="M 2875 4325 
L 2875 4200 
Q 2450 4175 2187 4050 
Q 1925 3925 1675 3675 
Q 1425 3425 1262 3112 
Q 1100 2800 975 2375 
Q 1425 2675 1875 2675 
Q 2325 2675 2637 2325 
Q 2950 1975 2950 1425 
Q 2950 900 2625 450 
Q 2250 -75 1600 -75 
Q 1175 -75 875 225 
Q 275 775 275 1675 
Q 275 2225 500 2737 
Q 725 3250 1150 3650 
Q 1575 4050 1962 4187 
Q 2350 4325 2700 4325 
L 2875 4325 
z
M 925 2150 
Q 875 1725 875 1450 
Q 875 1150 987 800 
Q 1100 450 1300 250 
Q 1475 100 1700 100 
Q 1975 100 2187 362 
Q 2400 625 2400 1100 
Q 2400 1625 2187 2012 
Q 1975 2400 1575 2400 
Q 1475 2400 1337 2350 
Q 1200 2300 925 2150 
z
" transform="scale(0.015625)"/>
      </defs>
      <use xlink:href="#SimSun-4d"/>
      <use xlink:href="#SimSun-61" x="89.0625"/>
      <use xlink:href="#SimSun-3d" x="133.59375"/>
      <use xlink:href="#SimSun-30" x="189.84375"/>
      <use xlink:href="#SimSun-2e" x="239.84375"/>
      <use xlink:href="#SimSun-36" x="264.84375"/>
     </g>
    </g>
    <g id="line2d_21">
     <path d="M 68.4 107.406375 
L 80.4 107.406375 
L 92.4 107.406375 
" style="fill: none; stroke: #d62728; stroke-width: 1.5; stroke-linecap: square"/>
    </g>
    <g id="text_19">
     <!-- Ma=0.8 -->
     <g transform="translate(102 111.606375)scale(0.12 -0.12)">
      <defs>
       <path id="SimSun-38" d="M 1225 2125 
Q 725 2550 575 2800 
Q 425 3050 425 3325 
Q 425 3725 750 4025 
Q 1075 4325 1600 4325 
Q 2125 4325 2437 4050 
Q 2750 3775 2750 3425 
Q 2750 3175 2575 2925 
Q 2400 2675 1875 2350 
Q 2425 1925 2600 1675 
Q 2825 1350 2825 1000 
Q 2825 550 2487 237 
Q 2150 -75 1600 -75 
Q 1000 -75 650 300 
Q 400 600 400 975 
Q 400 1250 587 1525 
Q 775 1800 1225 2125 
z
M 1725 2475 
Q 2100 2800 2200 3000 
Q 2300 3200 2300 3450 
Q 2300 3775 2112 3962 
Q 1925 4150 1600 4150 
Q 1300 4150 1100 3962 
Q 900 3775 900 3525 
Q 900 3375 975 3212 
Q 1050 3050 1200 2900 
L 1725 2475 
z
M 1375 2025 
Q 1125 1800 1000 1537 
Q 875 1275 875 975 
Q 875 575 1087 337 
Q 1300 100 1650 100 
Q 1975 100 2187 287 
Q 2400 475 2400 750 
Q 2400 975 2275 1150 
Q 2050 1475 1375 2025 
z
" transform="scale(0.015625)"/>
      </defs>
      <use xlink:href="#SimSun-4d"/>
      <use xlink:href="#SimSun-61" x="89.0625"/>
      <use xlink:href="#SimSun-3d" x="133.59375"/>
      <use xlink:href="#SimSun-30" x="189.84375"/>
      <use xlink:href="#SimSun-2e" x="239.84375"/>
      <use xlink:href="#SimSun-38" x="264.84375"/>
     </g>
    </g>
   </g>
  </g>
 </g>
 <defs>
  <clipPath id="p02789dd127">
   <rect x="57.6" y="41.472" width="357.12" height="266.112"/>
  </clipPath>
 </defs>
</svg>
