<?xml version="1.0" encoding="utf-8" standalone="no"?>
<!DOCTYPE svg PUBLIC "-//W3C//DTD SVG 1.1//EN"
  "http://www.w3.org/Graphics/SVG/1.1/DTD/svg11.dtd">
<svg xmlns:xlink="http://www.w3.org/1999/xlink" width="460.8pt" height="345.6pt" viewBox="0 0 460.8 345.6" xmlns="http://www.w3.org/2000/svg" version="1.1">
 <metadata>
  <rdf:RDF xmlns:dc="http://purl.org/dc/elements/1.1/" xmlns:cc="http://creativecommons.org/ns#" xmlns:rdf="http://www.w3.org/1999/02/22-rdf-syntax-ns#">
   <cc:Work>
    <dc:type rdf:resource="http://purl.org/dc/dcmitype/StillImage"/>
    <dc:date>2023-01-05T10:46:15.202366</dc:date>
    <dc:format>image/svg+xml</dc:format>
    <dc:creator>
     <cc:Agent>
      <dc:title>Matplotlib v3.5.3, https://matplotlib.org/</dc:title>
     </cc:Agent>
    </dc:creator>
   </cc:Work>
  </rdf:RDF>
 </metadata>
 <defs>
  <style type="text/css">*{stroke-linejoin: round; stroke-linecap: butt}</style>
 </defs>
 <g id="figure_1">
  <g id="patch_1">
   <path d="M 0 345.6 
L 460.8 345.6 
L 460.8 0 
L 0 0 
z
" style="fill: #ffffff"/>
  </g>
  <g id="axes_1">
   <g id="patch_2">
    <path d="M 57.6 307.584 
L 414.72 307.584 
L 414.72 41.472 
L 57.6 41.472 
z
" style="fill: #ffffff"/>
   </g>
   <g id="matplotlib.axis_1">
    <g id="xtick_1">
     <g id="line2d_1">
      <defs>
       <path id="mf22ed37bbd" d="M 0 0 
L 0 -3.5 
" style="stroke: #000000; stroke-width: 0.8"/>
      </defs>
      <g>
       <use xlink:href="#mf22ed37bbd" x="92.054246" y="307.584" style="stroke: #000000; stroke-width: 0.8"/>
      </g>
     </g>
     <g id="text_1">
      <!-- 0.02 -->
      <g transform="translate(81.554246 319.42775)scale(0.12 -0.12)">
       <defs>
        <path id="SimSun-30" d="M 225 2100 
Q 225 2825 450 3350 
Q 675 3875 1025 4125 
Q 1325 4325 1625 4325 
Q 2100 4325 2500 3825 
Q 2975 3225 2975 2150 
Q 2975 1425 2762 912 
Q 2550 400 2225 162 
Q 1900 -75 1575 -75 
Q 975 -75 575 650 
Q 225 1250 225 2100 
z
M 850 2025 
Q 850 1150 1050 600 
Q 1250 125 1600 125 
Q 1750 125 1937 275 
Q 2125 425 2225 775 
Q 2350 1325 2350 2300 
Q 2350 3025 2200 3500 
Q 2100 3875 1925 4025 
Q 1800 4125 1600 4125 
Q 1400 4125 1225 3925 
Q 1000 3675 925 3112 
Q 850 2550 850 2025 
z
" transform="scale(0.015625)"/>
        <path id="SimSun-2e" d="M 800 600 
Q 950 600 1050 500 
Q 1150 400 1150 250 
Q 1150 125 1050 25 
Q 950 -75 800 -75 
Q 650 -75 550 25 
Q 450 125 450 250 
Q 450 400 550 500 
Q 650 600 800 600 
z
" transform="scale(0.015625)"/>
        <path id="SimSun-32" d="M 2925 825 
L 2650 0 
L 150 0 
L 150 125 
Q 1250 1125 1700 1762 
Q 2150 2400 2150 2925 
Q 2150 3325 1900 3587 
Q 1650 3850 1300 3850 
Q 1000 3850 750 3662 
Q 500 3475 375 3125 
L 250 3125 
Q 350 3700 662 4012 
Q 975 4325 1475 4325 
Q 1975 4325 2325 4000 
Q 2675 3675 2675 3225 
Q 2675 2900 2525 2575 
Q 2300 2075 1775 1500 
Q 1000 650 800 475 
L 1900 475 
Q 2250 475 2387 500 
Q 2525 525 2637 600 
Q 2750 675 2825 825 
L 2925 825 
z
" transform="scale(0.015625)"/>
       </defs>
       <use xlink:href="#SimSun-30"/>
       <use xlink:href="#SimSun-2e" x="50"/>
       <use xlink:href="#SimSun-30" x="75"/>
       <use xlink:href="#SimSun-32" x="125"/>
      </g>
     </g>
    </g>
    <g id="xtick_2">
     <g id="line2d_2">
      <g>
       <use xlink:href="#mf22ed37bbd" x="136.019664" y="307.584" style="stroke: #000000; stroke-width: 0.8"/>
      </g>
     </g>
     <g id="text_2">
      <!-- 0.04 -->
      <g transform="translate(125.519664 319.42775)scale(0.12 -0.12)">
       <defs>
        <path id="SimSun-34" d="M 2975 1575 
L 2975 1125 
L 2400 1125 
L 2400 0 
L 1900 0 
L 1900 1125 
L 100 1125 
L 100 1525 
L 2075 4325 
L 2400 4325 
L 2400 1575 
L 2975 1575 
z
M 1900 1575 
L 1900 3675 
L 400 1575 
L 1900 1575 
z
" transform="scale(0.015625)"/>
       </defs>
       <use xlink:href="#SimSun-30"/>
       <use xlink:href="#SimSun-2e" x="50"/>
       <use xlink:href="#SimSun-30" x="75"/>
       <use xlink:href="#SimSun-34" x="125"/>
      </g>
     </g>
    </g>
    <g id="xtick_3">
     <g id="line2d_3">
      <g>
       <use xlink:href="#mf22ed37bbd" x="179.985082" y="307.584" style="stroke: #000000; stroke-width: 0.8"/>
      </g>
     </g>
     <g id="text_3">
      <!-- 0.06 -->
      <g transform="translate(169.485082 319.42775)scale(0.12 -0.12)">
       <defs>
        <path id="SimSun-36" d="M 2875 4325 
L 2875 4200 
Q 2450 4175 2187 4050 
Q 1925 3925 1675 3675 
Q 1425 3425 1262 3112 
Q 1100 2800 975 2375 
Q 1425 2675 1875 2675 
Q 2325 2675 2637 2325 
Q 2950 1975 2950 1425 
Q 2950 900 2625 450 
Q 2250 -75 1600 -75 
Q 1175 -75 875 225 
Q 275 775 275 1675 
Q 275 2225 500 2737 
Q 725 3250 1150 3650 
Q 1575 4050 1962 4187 
Q 2350 4325 2700 4325 
L 2875 4325 
z
M 925 2150 
Q 875 1725 875 1450 
Q 875 1150 987 800 
Q 1100 450 1300 250 
Q 1475 100 1700 100 
Q 1975 100 2187 362 
Q 2400 625 2400 1100 
Q 2400 1625 2187 2012 
Q 1975 2400 1575 2400 
Q 1475 2400 1337 2350 
Q 1200 2300 925 2150 
z
" transform="scale(0.015625)"/>
       </defs>
       <use xlink:href="#SimSun-30"/>
       <use xlink:href="#SimSun-2e" x="50"/>
       <use xlink:href="#SimSun-30" x="75"/>
       <use xlink:href="#SimSun-36" x="125"/>
      </g>
     </g>
    </g>
    <g id="xtick_4">
     <g id="line2d_4">
      <g>
       <use xlink:href="#mf22ed37bbd" x="223.9505" y="307.584" style="stroke: #000000; stroke-width: 0.8"/>
      </g>
     </g>
     <g id="text_4">
      <!-- 0.08 -->
      <g transform="translate(213.4505 319.42775)scale(0.12 -0.12)">
       <defs>
        <path id="SimSun-38" d="M 1225 2125 
Q 725 2550 575 2800 
Q 425 3050 425 3325 
Q 425 3725 750 4025 
Q 1075 4325 1600 4325 
Q 2125 4325 2437 4050 
Q 2750 3775 2750 3425 
Q 2750 3175 2575 2925 
Q 2400 2675 1875 2350 
Q 2425 1925 2600 1675 
Q 2825 1350 2825 1000 
Q 2825 550 2487 237 
Q 2150 -75 1600 -75 
Q 1000 -75 650 300 
Q 400 600 400 975 
Q 400 1250 587 1525 
Q 775 1800 1225 2125 
z
M 1725 2475 
Q 2100 2800 2200 3000 
Q 2300 3200 2300 3450 
Q 2300 3775 2112 3962 
Q 1925 4150 1600 4150 
Q 1300 4150 1100 3962 
Q 900 3775 900 3525 
Q 900 3375 975 3212 
Q 1050 3050 1200 2900 
L 1725 2475 
z
M 1375 2025 
Q 1125 1800 1000 1537 
Q 875 1275 875 975 
Q 875 575 1087 337 
Q 1300 100 1650 100 
Q 1975 100 2187 287 
Q 2400 475 2400 750 
Q 2400 975 2275 1150 
Q 2050 1475 1375 2025 
z
" transform="scale(0.015625)"/>
       </defs>
       <use xlink:href="#SimSun-30"/>
       <use xlink:href="#SimSun-2e" x="50"/>
       <use xlink:href="#SimSun-30" x="75"/>
       <use xlink:href="#SimSun-38" x="125"/>
      </g>
     </g>
    </g>
    <g id="xtick_5">
     <g id="line2d_5">
      <g>
       <use xlink:href="#mf22ed37bbd" x="267.915918" y="307.584" style="stroke: #000000; stroke-width: 0.8"/>
      </g>
     </g>
     <g id="text_5">
      <!-- 0.10 -->
      <g transform="translate(257.415918 319.42775)scale(0.12 -0.12)">
       <defs>
        <path id="SimSun-31" d="M 750 3825 
L 1775 4325 
L 1875 4325 
L 1875 750 
Q 1875 400 1912 312 
Q 1950 225 2037 175 
Q 2125 125 2425 125 
L 2425 0 
L 825 0 
L 825 125 
Q 1125 125 1212 175 
Q 1300 225 1337 300 
Q 1375 375 1375 750 
L 1375 3025 
Q 1375 3500 1350 3625 
Q 1325 3725 1262 3775 
Q 1200 3825 1125 3825 
Q 1000 3825 800 3725 
L 750 3825 
z
" transform="scale(0.015625)"/>
       </defs>
       <use xlink:href="#SimSun-30"/>
       <use xlink:href="#SimSun-2e" x="50"/>
       <use xlink:href="#SimSun-31" x="75"/>
       <use xlink:href="#SimSun-30" x="125"/>
      </g>
     </g>
    </g>
    <g id="xtick_6">
     <g id="line2d_6">
      <g>
       <use xlink:href="#mf22ed37bbd" x="311.881337" y="307.584" style="stroke: #000000; stroke-width: 0.8"/>
      </g>
     </g>
     <g id="text_6">
      <!-- 0.12 -->
      <g transform="translate(301.381337 319.42775)scale(0.12 -0.12)">
       <use xlink:href="#SimSun-30"/>
       <use xlink:href="#SimSun-2e" x="50"/>
       <use xlink:href="#SimSun-31" x="75"/>
       <use xlink:href="#SimSun-32" x="125"/>
      </g>
     </g>
    </g>
    <g id="xtick_7">
     <g id="line2d_7">
      <g>
       <use xlink:href="#mf22ed37bbd" x="355.846755" y="307.584" style="stroke: #000000; stroke-width: 0.8"/>
      </g>
     </g>
     <g id="text_7">
      <!-- 0.14 -->
      <g transform="translate(345.346755 319.42775)scale(0.12 -0.12)">
       <use xlink:href="#SimSun-30"/>
       <use xlink:href="#SimSun-2e" x="50"/>
       <use xlink:href="#SimSun-31" x="75"/>
       <use xlink:href="#SimSun-34" x="125"/>
      </g>
     </g>
    </g>
    <g id="xtick_8">
     <g id="line2d_8">
      <g>
       <use xlink:href="#mf22ed37bbd" x="399.812173" y="307.584" style="stroke: #000000; stroke-width: 0.8"/>
      </g>
     </g>
     <g id="text_8">
      <!-- 0.16 -->
      <g transform="translate(389.312173 319.42775)scale(0.12 -0.12)">
       <use xlink:href="#SimSun-30"/>
       <use xlink:href="#SimSun-2e" x="50"/>
       <use xlink:href="#SimSun-31" x="75"/>
       <use xlink:href="#SimSun-36" x="125"/>
      </g>
     </g>
    </g>
    <g id="text_9">
     <!-- $\mathrm{C_D}$ -->
     <g transform="translate(228.72 334.349625)scale(0.12 -0.12)">
      <defs>
       <path id="STIXGeneral-Regular-43" d="M 3930 838 
L 4051 723 
Q 3482 -90 2304 -90 
Q 1376 -90 794 480 
Q 179 1082 179 2080 
Q 179 3014 755 3661 
Q 1357 4326 2310 4326 
Q 2720 4326 3072 4230 
Q 3475 4115 3514 4115 
Q 3725 4115 3782 4326 
L 3910 4326 
L 3968 2874 
L 3821 2874 
Q 3718 3334 3488 3584 
Q 3034 4070 2458 4070 
Q 1747 4070 1334 3548 
Q 922 3027 922 2182 
Q 922 1152 1382 653 
Q 1811 192 2522 192 
Q 2944 192 3251 339 
Q 3558 486 3930 838 
z
" transform="scale(0.015625)"/>
       <path id="STIXGeneral-Regular-44" d="M 102 4237 
L 1830 4237 
Q 3078 4237 3750 3654 
Q 4384 3110 4384 2138 
Q 4384 966 3514 410 
Q 2880 0 1901 0 
L 102 0 
L 102 122 
Q 474 147 570 252 
Q 666 358 666 736 
L 666 3520 
Q 666 3891 570 3990 
Q 474 4090 102 4115 
L 102 4237 
z
M 1318 3731 
L 1318 538 
Q 1318 365 1379 301 
Q 1440 237 1626 237 
Q 2125 237 2432 307 
Q 2739 378 3021 570 
Q 3686 1018 3686 2099 
Q 3686 3027 3078 3558 
Q 2803 3802 2476 3901 
Q 2150 4000 1658 4000 
Q 1472 4000 1395 3942 
Q 1318 3885 1318 3731 
z
" transform="scale(0.015625)"/>
      </defs>
      <use xlink:href="#STIXGeneral-Regular-43" transform="translate(0 0.40625)"/>
      <use xlink:href="#STIXGeneral-Regular-44" transform="translate(68.274997 -13.09375)scale(0.7)"/>
     </g>
    </g>
   </g>
   <g id="matplotlib.axis_2">
    <g id="ytick_1">
     <g id="line2d_9">
      <defs>
       <path id="m795738bffd" d="M 0 0 
L 3.5 0 
" style="stroke: #000000; stroke-width: 0.8"/>
      </defs>
      <g>
       <use xlink:href="#m795738bffd" x="57.6" y="297.609967" style="stroke: #000000; stroke-width: 0.8"/>
      </g>
     </g>
     <g id="text_10">
      <!-- -0.25 -->
      <g transform="translate(29.115625 301.781842)scale(0.12 -0.12)">
       <defs>
        <path id="SimSun-2d" d="M 250 1675 
L 1875 1675 
L 1875 1200 
L 250 1200 
L 250 1675 
z
" transform="scale(0.015625)"/>
        <path id="SimSun-35" d="M 2775 4250 
L 2525 3700 
L 1250 3700 
L 975 3150 
Q 1800 3025 2300 2525 
Q 2700 2100 2700 1525 
Q 2700 1200 2575 912 
Q 2450 625 2237 425 
Q 2025 225 1775 100 
Q 1425 -75 1025 -75 
Q 650 -75 475 50 
Q 300 175 300 350 
Q 300 425 375 500 
Q 450 575 550 575 
Q 650 575 712 550 
Q 775 525 900 400 
Q 1150 250 1375 250 
Q 1750 250 2025 525 
Q 2300 800 2300 1200 
Q 2300 1575 2050 1912 
Q 1800 2250 1375 2425 
Q 1025 2575 450 2600 
L 1250 4250 
L 2775 4250 
z
" transform="scale(0.015625)"/>
       </defs>
       <use xlink:href="#SimSun-2d"/>
       <use xlink:href="#SimSun-30" x="33.203125"/>
       <use xlink:href="#SimSun-2e" x="83.203125"/>
       <use xlink:href="#SimSun-32" x="108.203125"/>
       <use xlink:href="#SimSun-35" x="158.203125"/>
      </g>
     </g>
    </g>
    <g id="ytick_2">
     <g id="line2d_10">
      <g>
       <use xlink:href="#m795738bffd" x="57.6" y="263.073505" style="stroke: #000000; stroke-width: 0.8"/>
      </g>
     </g>
     <g id="text_11">
      <!-- 0.00 -->
      <g transform="translate(33.1 267.24538)scale(0.12 -0.12)">
       <use xlink:href="#SimSun-30"/>
       <use xlink:href="#SimSun-2e" x="50"/>
       <use xlink:href="#SimSun-30" x="75"/>
       <use xlink:href="#SimSun-30" x="125"/>
      </g>
     </g>
    </g>
    <g id="ytick_3">
     <g id="line2d_11">
      <g>
       <use xlink:href="#m795738bffd" x="57.6" y="228.537043" style="stroke: #000000; stroke-width: 0.8"/>
      </g>
     </g>
     <g id="text_12">
      <!-- 0.25 -->
      <g transform="translate(33.1 232.708918)scale(0.12 -0.12)">
       <use xlink:href="#SimSun-30"/>
       <use xlink:href="#SimSun-2e" x="50"/>
       <use xlink:href="#SimSun-32" x="75"/>
       <use xlink:href="#SimSun-35" x="125"/>
      </g>
     </g>
    </g>
    <g id="ytick_4">
     <g id="line2d_12">
      <g>
       <use xlink:href="#m795738bffd" x="57.6" y="194.000582" style="stroke: #000000; stroke-width: 0.8"/>
      </g>
     </g>
     <g id="text_13">
      <!-- 0.50 -->
      <g transform="translate(33.1 198.172457)scale(0.12 -0.12)">
       <use xlink:href="#SimSun-30"/>
       <use xlink:href="#SimSun-2e" x="50"/>
       <use xlink:href="#SimSun-35" x="75"/>
       <use xlink:href="#SimSun-30" x="125"/>
      </g>
     </g>
    </g>
    <g id="ytick_5">
     <g id="line2d_13">
      <g>
       <use xlink:href="#m795738bffd" x="57.6" y="159.46412" style="stroke: #000000; stroke-width: 0.8"/>
      </g>
     </g>
     <g id="text_14">
      <!-- 0.75 -->
      <g transform="translate(33.1 163.635995)scale(0.12 -0.12)">
       <defs>
        <path id="SimSun-37" d="M 650 4250 
L 2925 4250 
L 2925 4125 
L 1500 -75 
L 1150 -75 
L 2425 3725 
L 1250 3725 
Q 900 3725 750 3650 
Q 500 3500 325 3200 
L 250 3225 
L 650 4250 
z
" transform="scale(0.015625)"/>
       </defs>
       <use xlink:href="#SimSun-30"/>
       <use xlink:href="#SimSun-2e" x="50"/>
       <use xlink:href="#SimSun-37" x="75"/>
       <use xlink:href="#SimSun-35" x="125"/>
      </g>
     </g>
    </g>
    <g id="ytick_6">
     <g id="line2d_14">
      <g>
       <use xlink:href="#m795738bffd" x="57.6" y="124.927659" style="stroke: #000000; stroke-width: 0.8"/>
      </g>
     </g>
     <g id="text_15">
      <!-- 1.00 -->
      <g transform="translate(33.1 129.099534)scale(0.12 -0.12)">
       <use xlink:href="#SimSun-31"/>
       <use xlink:href="#SimSun-2e" x="50"/>
       <use xlink:href="#SimSun-30" x="75"/>
       <use xlink:href="#SimSun-30" x="125"/>
      </g>
     </g>
    </g>
    <g id="ytick_7">
     <g id="line2d_15">
      <g>
       <use xlink:href="#m795738bffd" x="57.6" y="90.391197" style="stroke: #000000; stroke-width: 0.8"/>
      </g>
     </g>
     <g id="text_16">
      <!-- 1.25 -->
      <g transform="translate(33.1 94.563072)scale(0.12 -0.12)">
       <use xlink:href="#SimSun-31"/>
       <use xlink:href="#SimSun-2e" x="50"/>
       <use xlink:href="#SimSun-32" x="75"/>
       <use xlink:href="#SimSun-35" x="125"/>
      </g>
     </g>
    </g>
    <g id="ytick_8">
     <g id="line2d_16">
      <g>
       <use xlink:href="#m795738bffd" x="57.6" y="55.854736" style="stroke: #000000; stroke-width: 0.8"/>
      </g>
     </g>
     <g id="text_17">
      <!-- 1.50 -->
      <g transform="translate(33.1 60.026611)scale(0.12 -0.12)">
       <use xlink:href="#SimSun-31"/>
       <use xlink:href="#SimSun-2e" x="50"/>
       <use xlink:href="#SimSun-35" x="75"/>
       <use xlink:href="#SimSun-30" x="125"/>
      </g>
     </g>
    </g>
    <g id="text_18">
     <!-- $\mathrm{C_L}$ -->
     <g transform="translate(22.5375 181.488)rotate(-90)scale(0.12 -0.12)">
      <defs>
       <path id="STIXGeneral-Regular-4c" d="M 3827 1114 
L 3520 0 
L 77 0 
L 77 122 
Q 429 141 531 256 
Q 634 371 634 736 
L 634 3494 
Q 634 3872 541 3981 
Q 448 4090 77 4115 
L 77 4237 
L 1888 4237 
L 1888 4115 
Q 1498 4090 1392 3984 
Q 1286 3878 1286 3507 
L 1286 538 
Q 1286 358 1398 304 
Q 1510 250 1862 250 
L 2310 250 
Q 3085 250 3392 640 
Q 3520 813 3661 1114 
L 3827 1114 
z
" transform="scale(0.015625)"/>
      </defs>
      <use xlink:href="#STIXGeneral-Regular-43" transform="translate(0 0.40625)"/>
      <use xlink:href="#STIXGeneral-Regular-4c" transform="translate(68.274997 -13.09375)scale(0.7)"/>
     </g>
    </g>
   </g>
   <g id="line2d_17">
    <path d="M 112.351966 294.639326 
L 110.35554 292.094304 
L 108.453448 289.549048 
L 106.645693 287.003556 
L 104.932272 284.45783 
L 103.313188 281.91187 
L 101.788439 279.365674 
L 100.358025 276.819244 
L 99.021947 274.272578 
L 97.769748 271.725735 
L 96.590476 269.178774 
L 95.484129 266.631694 
L 94.450708 264.084495 
L 93.490212 261.537178 
L 92.601636 258.989749 
L 91.778512 256.442242 
L 91.019688 253.894666 
L 90.325166 251.347019 
L 89.694944 248.799303 
L 89.129022 246.251516 
L 88.625584 243.703674 
L 88.181896 241.155799 
L 87.797932 238.607891 
L 87.473692 236.059951 
L 87.209175 233.511979 
L 87.004217 230.963974 
L 86.855182 228.415959 
L 86.760574 225.867942 
L 86.720394 223.319923 
L 86.734643 220.771901 
L 86.803319 218.223877 
L 86.925193 215.675855 
L 87.094653 213.127849 
L 87.311005 210.579862 
L 87.574251 208.031894 
L 87.88439 205.483945 
L 88.241423 202.936015 
L 88.645219 200.38811 
L 89.095574 197.840243 
L 89.592485 195.292414 
L 90.135953 192.744622 
L 90.725977 190.196867 
L 91.362517 187.64915 
L 92.044239 185.101482 
L 92.770497 182.553868 
L 93.541289 180.006307 
L 94.356616 177.4588 
L 95.216478 174.911346 
L 96.121255 172.36395 
L 97.072667 169.816626 
L 98.070923 167.269376 
L 99.116023 164.722201 
L 100.207968 162.175101 
L 101.34676 159.628075 
L 102.535924 157.081141 
L 103.77862 154.534315 
L 105.074848 151.987596 
L 106.424608 149.440985 
L 107.827899 146.894482 
L 109.286195 144.348094 
L 110.80558 141.801857 
L 112.386718 139.255775 
L 114.02961 136.709847 
L 115.734254 134.164073 
L 117.501502 131.618458 
L 119.342794 129.073055 
L 121.261728 126.527882 
L 123.258303 123.982938 
L 125.33252 121.438224 
L 127.485188 118.893746 
L 129.732266 116.349627 
L 132.079947 113.805915 
L 134.528229 111.26261 
L 137.077112 108.719712 
L 139.731075 106.177223 
L 142.520326 103.635162 
L 145.450497 101.093529 
L 148.521591 98.552327 
L 151.73361 96.011555 
L 155.121349 93.472248 
L 158.718237 90.935399 
L 162.524274 88.401009 
L 166.539458 85.869077 
L 170.842784 83.336052 
L 175.525075 80.797851 
L 180.58644 78.254468 
L 186.077509 75.712284 
L 192.378696 73.219227 
L 199.568158 70.785145 
L 207.928334 68.348002 
L 218.662413 65.643525 
L 237.264913 63.40447 
L 275.174639 64.062746 
L 296.306257 66.237088 
L 312.538859 68.658801 
L 329.815979 70.962568 
L 347.305132 73.238153 
L 364.580065 75.531518 
L 381.640778 77.842663 
L 398.487273 80.171588 
" clip-path="url(#p9d88d9376e)" style="fill: none; stroke: #1f77b4; stroke-width: 1.5; stroke-linecap: square"/>
   </g>
   <g id="line2d_18">
    <path d="M 101.357936 295.118638 
L 99.533709 292.478085 
L 97.803015 289.837331 
L 96.165855 287.196374 
L 94.622228 284.555215 
L 93.172135 281.913855 
L 91.815574 279.272292 
L 90.552548 276.630528 
L 89.382674 273.988563 
L 88.289973 271.346468 
L 87.266013 268.704279 
L 86.310793 266.061997 
L 85.424313 263.419621 
L 84.606573 260.777152 
L 83.854469 258.134602 
L 83.161491 255.491998 
L 82.527433 252.84934 
L 81.952296 250.206629 
L 81.436078 247.563865 
L 80.978519 244.92105 
L 80.576151 242.278204 
L 80.227894 239.635334 
L 79.933749 236.992441 
L 79.693716 234.349524 
L 79.507795 231.706583 
L 79.374386 229.063627 
L 79.290356 226.42067 
L 79.255623 223.777713 
L 79.270187 221.134756 
L 79.334049 218.491798 
L 79.446896 215.848841 
L 79.602478 213.205895 
L 79.798346 210.562963 
L 80.034501 207.920046 
L 80.310943 205.277144 
L 80.627671 202.634257 
L 80.984345 199.991387 
L 81.379928 197.348543 
L 81.81435 194.705726 
L 82.287612 192.062936 
L 82.799714 189.420172 
L 83.350634 186.777436 
L 83.93873 184.134731 
L 84.562959 181.492063 
L 85.223321 178.849431 
L 85.919814 176.206834 
L 86.652441 173.564274 
L 87.421585 170.921752 
L 88.228852 168.279279 
L 89.074419 165.636855 
L 89.958287 162.99448 
L 90.880454 160.352156 
L 91.840969 157.709881 
L 92.843116 155.067668 
L 93.888889 152.425526 
L 94.978285 149.783455 
L 96.111307 147.141454 
L 97.287953 144.499523 
L 98.510358 141.857673 
L 99.783434 139.215924 
L 101.107376 136.574278 
L 102.482183 133.932734 
L 103.907857 131.291293 
L 105.386408 128.649961 
L 106.928366 126.008773 
L 108.535252 123.367734 
L 110.207066 120.726844 
L 111.943809 118.086103 
L 113.747863 115.445529 
L 115.63442 112.805237 
L 117.606166 110.165248 
L 119.663099 107.525561 
L 121.80522 104.886177 
L 124.039985 102.247056 
L 126.390811 99.608075 
L 128.859401 96.969224 
L 131.445755 94.330503 
L 134.150787 91.691953 
L 137.011431 89.055178 
L 140.046938 86.421014 
L 143.25731 83.789461 
L 146.643124 81.160482 
L 150.30841 78.527328 
L 154.329949 75.88502 
L 158.707739 73.233557 
L 163.474064 70.583837 
L 168.819631 68.000231 
L 174.77573 65.493303 
L 181.935969 62.966324 
L 192.638122 60.03836 
L 212.317828 57.961646 
L 246.763287 59.586756 
L 264.661591 61.980341 
L 277.579786 64.501032 
L 292.109385 66.981888 
L 307.787501 69.434351 
L 323.493123 71.886131 
L 339.176308 74.338461 
L 354.837057 76.791343 
L 370.475369 79.244775 
" clip-path="url(#p9d88d9376e)" style="fill: none; stroke: #ff7f0e; stroke-width: 1.5; stroke-linecap: square"/>
   </g>
   <g id="line2d_19">
    <path d="M 96.273371 295.352276 
L 94.531812 292.668058 
L 92.883771 289.983651 
L 91.329248 287.299057 
L 89.868243 284.614275 
L 88.500755 281.929305 
L 87.226785 279.244147 
L 86.046332 276.558802 
L 84.958526 273.873273 
L 83.944799 271.187632 
L 82.99767 268.501908 
L 82.117137 265.816103 
L 81.303202 263.130215 
L 80.555864 260.444244 
L 79.870775 257.758207 
L 79.242192 255.072125 
L 78.670091 252.385996 
L 78.154469 249.699821 
L 77.695328 247.0136 
L 77.291902 244.327337 
L 76.939867 241.641052 
L 76.638546 238.954747 
L 76.387939 236.268423 
L 76.188046 233.58208 
L 76.038861 230.895718 
L 75.937936 228.209347 
L 75.88328 225.522977 
L 75.874893 222.836608 
L 75.912775 220.150239 
L 75.996927 217.463871 
L 76.125919 214.777505 
L 76.292784 212.091152 
L 76.496592 209.404811 
L 76.737343 206.718483 
L 77.015038 204.032168 
L 77.329675 201.345866 
L 77.680247 198.659582 
L 78.065854 195.973321 
L 78.486498 193.287081 
L 78.942177 190.600864 
L 79.432892 187.914669 
L 79.958261 185.228497 
L 80.516095 182.542353 
L 81.106045 179.856238 
L 81.728109 177.170153 
L 82.382289 174.484096 
L 83.068585 171.798068 
L 83.788086 169.112075 
L 84.541769 166.426122 
L 85.329636 163.740209 
L 86.151686 161.054335 
L 87.00792 158.368501 
L 87.899132 155.68271 
L 88.828609 152.996973 
L 89.796708 150.311291 
L 90.803431 147.625666 
L 91.848776 144.940096 
L 92.932962 142.254582 
L 94.060711 139.569143 
L 95.233938 136.883786 
L 96.452644 134.19851 
L 97.716827 131.513317 
L 99.026494 128.828205 
L 100.38847 126.143194 
L 101.808886 123.458299 
L 103.28774 120.77352 
L 104.825033 118.088858 
L 106.420766 115.404312 
L 108.084002 112.71995 
L 109.824899 110.035848 
L 111.643464 107.352005 
L 113.539697 104.668422 
L 115.513875 101.985096 
L 117.583186 99.301875 
L 119.757815 96.618667 
L 122.037762 93.935473 
L 124.423026 91.252293 
L 126.923284 88.569608 
L 129.577241 85.889346 
L 132.388933 83.211708 
L 135.358359 80.536693 
L 138.504667 77.862899 
L 141.962053 75.18049 
L 145.75644 72.487565 
L 149.88783 69.784126 
L 154.407046 67.102657 
L 159.405878 64.501827 
L 164.886203 61.982837 
L 172.357074 59.312473 
L 183.969486 56.158314 
L 208.771928 55.326927 
L 238.790058 57.601275 
L 252.824993 60.115396 
L 265.331851 62.658419 
L 279.561019 65.186178 
L 294.971196 67.701225 
L 310.586102 70.208165 
L 326.385844 72.707092 
L 342.370422 75.198006 
L 358.539837 77.680906 
" clip-path="url(#p9d88d9376e)" style="fill: none; stroke: #2ca02c; stroke-width: 1.5; stroke-linecap: square"/>
   </g>
   <g id="line2d_20">
    <path d="M 93.213195 295.488 
L 91.514254 292.774083 
L 89.91005 290.059984 
L 88.400583 287.345704 
L 86.985854 284.631241 
L 85.665862 281.916597 
L 84.440607 279.201771 
L 83.31009 276.486763 
L 82.272874 273.771579 
L 81.307859 271.056293 
L 80.408058 268.340933 
L 79.573471 265.625496 
L 78.804099 262.909985 
L 78.099938 260.194397 
L 77.455834 257.478752 
L 76.867068 254.763065 
L 76.333638 252.047336 
L 75.855546 249.331565 
L 75.432791 246.615752 
L 75.063936 243.899902 
L 74.744007 241.184035 
L 74.472583 238.46815 
L 74.249662 235.752249 
L 74.075245 233.036331 
L 73.949227 230.320397 
L 73.868805 227.604459 
L 73.832727 224.888521 
L 73.840994 222.172585 
L 73.893606 219.45665 
L 73.990562 216.740716 
L 74.129184 214.024786 
L 74.303181 211.308868 
L 74.512291 208.592962 
L 74.756514 205.877068 
L 75.03585 203.161186 
L 75.350213 200.445317 
L 75.697983 197.729465 
L 76.078551 195.013633 
L 76.491917 192.29782 
L 76.93808 189.582028 
L 77.41704 186.866255 
L 77.927842 184.150504 
L 78.468448 181.434778 
L 79.038789 178.719077 
L 79.638867 176.003402 
L 80.26868 173.287752 
L 80.928341 170.572128 
L 81.619279 167.856536 
L 82.341927 165.140978 
L 83.096286 162.425455 
L 83.882356 159.709967 
L 84.700136 156.994513 
L 85.551345 154.279099 
L 86.438201 151.563733 
L 87.360712 148.848414 
L 88.318878 146.133144 
L 89.312701 143.417921 
L 90.343361 140.702749 
L 91.415649 137.987647 
L 92.53007 135.272615 
L 93.686624 132.557654 
L 94.885312 129.842763 
L 96.127088 127.127945 
L 97.421331 124.413221 
L 98.770431 121.698597 
L 100.174387 118.984071 
L 101.6332 116.269646 
L 103.14785 113.555327 
L 104.73136 110.841213 
L 106.387785 108.127335 
L 108.117126 105.413692 
L 109.919382 102.700286 
L 111.79766 99.987081 
L 113.771397 97.273866 
L 115.843968 94.560604 
L 118.015375 91.847295 
L 120.285617 89.133939 
L 122.675795 86.421708 
L 125.212991 83.712107 
L 127.897304 81.00514 
L 130.728737 78.300807 
L 133.759283 75.595073 
L 137.111017 72.878457 
L 140.789019 70.150566 
L 144.793868 67.411969 
L 149.183895 64.720099 
L 153.997904 62.11316 
L 159.279427 59.584297 
L 167.417133 56.757311 
L 180.213825 53.568 
L 208.778371 53.987668 
L 234.217684 56.437942 
L 246.385316 58.994222 
L 258.852268 61.558278 
L 273.036946 64.119845 
L 288.268611 66.675337 
L 303.728663 69.220381 
L 319.41512 71.754964 
L 335.327983 74.279088 
L 351.46725 76.792753 
" clip-path="url(#p9d88d9376e)" style="fill: none; stroke: #d62728; stroke-width: 1.5; stroke-linecap: square"/>
   </g>
   <g id="patch_3">
    <path d="M 57.6 307.584 
L 57.6 41.472 
" style="fill: none; stroke: #000000; stroke-width: 0.8; stroke-linejoin: miter; stroke-linecap: square"/>
   </g>
   <g id="patch_4">
    <path d="M 414.72 307.584 
L 414.72 41.472 
" style="fill: none; stroke: #000000; stroke-width: 0.8; stroke-linejoin: miter; stroke-linecap: square"/>
   </g>
   <g id="patch_5">
    <path d="M 57.6 307.584 
L 414.72 307.584 
" style="fill: none; stroke: #000000; stroke-width: 0.8; stroke-linejoin: miter; stroke-linecap: square"/>
   </g>
   <g id="patch_6">
    <path d="M 57.6 41.472 
L 414.72 41.472 
" style="fill: none; stroke: #000000; stroke-width: 0.8; stroke-linejoin: miter; stroke-linecap: square"/>
   </g>
   <g id="legend_1">
    <g id="line2d_21">
     <path d="M 332.53875 239.0715 
L 344.53875 239.0715 
L 356.53875 239.0715 
" style="fill: none; stroke: #1f77b4; stroke-width: 1.5; stroke-linecap: square"/>
    </g>
    <g id="text_19">
     <!-- Ma=0.2 -->
     <g transform="translate(366.13875 243.2715)scale(0.12 -0.12)">
      <defs>
       <path id="SimSun-4d" d="M 2625 0 
L 975 3575 
L 975 725 
Q 975 350 1075 250 
Q 1175 125 1425 125 
L 1575 125 
L 1575 0 
L 100 0 
L 100 125 
L 250 125 
Q 525 125 650 275 
Q 700 375 700 725 
L 700 3500 
Q 700 3775 650 3900 
Q 600 4000 487 4062 
Q 375 4125 100 4125 
L 100 4250 
L 1300 4250 
L 2850 925 
L 4350 4250 
L 5550 4250 
L 5550 4125 
L 5400 4125 
Q 5150 4125 5025 3950 
Q 4950 3850 4950 3500 
L 4950 725 
Q 4950 350 5050 250 
Q 5150 125 5400 125 
L 5550 125 
L 5550 0 
L 3750 0 
L 3750 125 
L 3900 125 
Q 4175 125 4300 275 
Q 4350 375 4350 725 
L 4350 3575 
L 2725 0 
L 2625 0 
z
" transform="scale(0.015625)"/>
       <path id="SimSun-61" d="M 1825 425 
Q 1375 75 1275 25 
Q 1100 -50 900 -50 
Q 625 -50 425 150 
Q 225 350 225 675 
Q 225 900 325 1050 
Q 450 1250 762 1437 
Q 1075 1625 1825 1900 
L 1825 2000 
Q 1825 2450 1687 2600 
Q 1550 2750 1300 2750 
Q 1100 2750 975 2650 
Q 850 2550 850 2400 
L 875 2225 
Q 875 2075 800 2000 
Q 725 1925 600 1925 
Q 475 1925 412 2012 
Q 350 2100 350 2225 
Q 350 2500 625 2725 
Q 900 2950 1375 2950 
Q 1775 2950 2000 2825 
Q 2200 2725 2275 2525 
Q 2350 2375 2350 1975 
L 2350 1000 
Q 2350 575 2362 487 
Q 2375 400 2412 375 
Q 2450 350 2500 350 
Q 2550 350 2575 350 
Q 2650 400 2825 600 
L 2825 425 
Q 2475 -50 2150 -50 
Q 2000 -50 1912 50 
Q 1825 150 1825 425 
z
M 1825 625 
L 1825 1700 
Q 1350 1525 1225 1450 
Q 975 1300 862 1150 
Q 750 1000 750 825 
Q 750 600 887 450 
Q 1025 300 1200 300 
Q 1425 300 1825 625 
z
" transform="scale(0.015625)"/>
       <path id="SimSun-3d" d="M 125 2750 
L 3500 2750 
L 3500 2500 
L 125 2500 
L 125 2750 
z
M 125 1750 
L 3500 1750 
L 3500 1475 
L 125 1475 
L 125 1750 
z
" transform="scale(0.015625)"/>
      </defs>
      <use xlink:href="#SimSun-4d"/>
      <use xlink:href="#SimSun-61" x="89.0625"/>
      <use xlink:href="#SimSun-3d" x="133.59375"/>
      <use xlink:href="#SimSun-30" x="189.84375"/>
      <use xlink:href="#SimSun-2e" x="239.84375"/>
      <use xlink:href="#SimSun-32" x="264.84375"/>
     </g>
    </g>
    <g id="line2d_22">
     <path d="M 332.53875 256.049625 
L 344.53875 256.049625 
L 356.53875 256.049625 
" style="fill: none; stroke: #ff7f0e; stroke-width: 1.5; stroke-linecap: square"/>
    </g>
    <g id="text_20">
     <!-- Ma=0.4 -->
     <g transform="translate(366.13875 260.249625)scale(0.12 -0.12)">
      <use xlink:href="#SimSun-4d"/>
      <use xlink:href="#SimSun-61" x="89.0625"/>
      <use xlink:href="#SimSun-3d" x="133.59375"/>
      <use xlink:href="#SimSun-30" x="189.84375"/>
      <use xlink:href="#SimSun-2e" x="239.84375"/>
      <use xlink:href="#SimSun-34" x="264.84375"/>
     </g>
    </g>
    <g id="line2d_23">
     <path d="M 332.53875 273.02775 
L 344.53875 273.02775 
L 356.53875 273.02775 
" style="fill: none; stroke: #2ca02c; stroke-width: 1.5; stroke-linecap: square"/>
    </g>
    <g id="text_21">
     <!-- Ma=0.6 -->
     <g transform="translate(366.13875 277.22775)scale(0.12 -0.12)">
      <use xlink:href="#SimSun-4d"/>
      <use xlink:href="#SimSun-61" x="89.0625"/>
      <use xlink:href="#SimSun-3d" x="133.59375"/>
      <use xlink:href="#SimSun-30" x="189.84375"/>
      <use xlink:href="#SimSun-2e" x="239.84375"/>
      <use xlink:href="#SimSun-36" x="264.84375"/>
     </g>
    </g>
    <g id="line2d_24">
     <path d="M 332.53875 290.005875 
L 344.53875 290.005875 
L 356.53875 290.005875 
" style="fill: none; stroke: #d62728; stroke-width: 1.5; stroke-linecap: square"/>
    </g>
    <g id="text_22">
     <!-- Ma=0.8 -->
     <g transform="translate(366.13875 294.205875)scale(0.12 -0.12)">
      <use xlink:href="#SimSun-4d"/>
      <use xlink:href="#SimSun-61" x="89.0625"/>
      <use xlink:href="#SimSun-3d" x="133.59375"/>
      <use xlink:href="#SimSun-30" x="189.84375"/>
      <use xlink:href="#SimSun-2e" x="239.84375"/>
      <use xlink:href="#SimSun-38" x="264.84375"/>
     </g>
    </g>
   </g>
  </g>
 </g>
 <defs>
  <clipPath id="p9d88d9376e">
   <rect x="57.6" y="41.472" width="357.12" height="266.112"/>
  </clipPath>
 </defs>
</svg>
