<?xml version="1.0" encoding="utf-8" standalone="no"?>
<!DOCTYPE svg PUBLIC "-//W3C//DTD SVG 1.1//EN"
  "http://www.w3.org/Graphics/SVG/1.1/DTD/svg11.dtd">
<svg xmlns:xlink="http://www.w3.org/1999/xlink" width="460.8pt" height="345.6pt" viewBox="0 0 460.8 345.6" xmlns="http://www.w3.org/2000/svg" version="1.1">
 <metadata>
  <rdf:RDF xmlns:dc="http://purl.org/dc/elements/1.1/" xmlns:cc="http://creativecommons.org/ns#" xmlns:rdf="http://www.w3.org/1999/02/22-rdf-syntax-ns#">
   <cc:Work>
    <dc:type rdf:resource="http://purl.org/dc/dcmitype/StillImage"/>
    <dc:date>2023-01-03T22:34:06.498049</dc:date>
    <dc:format>image/svg+xml</dc:format>
    <dc:creator>
     <cc:Agent>
      <dc:title>Matplotlib v3.5.3, https://matplotlib.org/</dc:title>
     </cc:Agent>
    </dc:creator>
   </cc:Work>
  </rdf:RDF>
 </metadata>
 <defs>
  <style type="text/css">*{stroke-linejoin: round; stroke-linecap: butt}</style>
 </defs>
 <g id="figure_1">
  <g id="patch_1">
   <path d="M 0 345.6 
L 460.8 345.6 
L 460.8 0 
L 0 0 
L 0 345.6 
z
" style="fill: none"/>
  </g>
  <g id="axes_1">
   <g id="patch_2">
    <path d="M 57.6 307.584 
L 414.72 307.584 
L 414.72 41.472 
L 57.6 41.472 
L 57.6 307.584 
z
" style="fill: none"/>
   </g>
   <g id="matplotlib.axis_1">
    <g id="xtick_1">
     <g id="line2d_1">
      <defs>
       <path id="mea2046db45" d="M 0 0 
L 0 -3.5 
" style="stroke: #000000; stroke-width: 0.8"/>
      </defs>
      <g>
       <use xlink:href="#mea2046db45" x="73.832727" y="307.584" style="stroke: #000000; stroke-width: 0.8"/>
      </g>
     </g>
     <g id="text_1">
      <!-- -5 -->
      <g transform="translate(68.84054 319.42775)scale(0.12 -0.12)">
       <defs>
        <path id="SimSun-2d" d="M 250 1675 
L 1875 1675 
L 1875 1200 
L 250 1200 
L 250 1675 
z
" transform="scale(0.015625)"/>
        <path id="SimSun-35" d="M 2775 4250 
L 2525 3700 
L 1250 3700 
L 975 3150 
Q 1800 3025 2300 2525 
Q 2700 2100 2700 1525 
Q 2700 1200 2575 912 
Q 2450 625 2237 425 
Q 2025 225 1775 100 
Q 1425 -75 1025 -75 
Q 650 -75 475 50 
Q 300 175 300 350 
Q 300 425 375 500 
Q 450 575 550 575 
Q 650 575 712 550 
Q 775 525 900 400 
Q 1150 250 1375 250 
Q 1750 250 2025 525 
Q 2300 800 2300 1200 
Q 2300 1575 2050 1912 
Q 1800 2250 1375 2425 
Q 1025 2575 450 2600 
L 1250 4250 
L 2775 4250 
z
" transform="scale(0.015625)"/>
       </defs>
       <use xlink:href="#SimSun-2d"/>
       <use xlink:href="#SimSun-35" x="33.203125"/>
      </g>
     </g>
    </g>
    <g id="xtick_2">
     <g id="line2d_2">
      <g>
       <use xlink:href="#mea2046db45" x="144.409802" y="307.584" style="stroke: #000000; stroke-width: 0.8"/>
      </g>
     </g>
     <g id="text_2">
      <!-- 0 -->
      <g transform="translate(141.409802 319.42775)scale(0.12 -0.12)">
       <defs>
        <path id="SimSun-30" d="M 225 2100 
Q 225 2825 450 3350 
Q 675 3875 1025 4125 
Q 1325 4325 1625 4325 
Q 2100 4325 2500 3825 
Q 2975 3225 2975 2150 
Q 2975 1425 2762 912 
Q 2550 400 2225 162 
Q 1900 -75 1575 -75 
Q 975 -75 575 650 
Q 225 1250 225 2100 
z
M 850 2025 
Q 850 1150 1050 600 
Q 1250 125 1600 125 
Q 1750 125 1937 275 
Q 2125 425 2225 775 
Q 2350 1325 2350 2300 
Q 2350 3025 2200 3500 
Q 2100 3875 1925 4025 
Q 1800 4125 1600 4125 
Q 1400 4125 1225 3925 
Q 1000 3675 925 3112 
Q 850 2550 850 2025 
z
" transform="scale(0.015625)"/>
       </defs>
       <use xlink:href="#SimSun-30"/>
      </g>
     </g>
    </g>
    <g id="xtick_3">
     <g id="line2d_3">
      <g>
       <use xlink:href="#mea2046db45" x="214.986877" y="307.584" style="stroke: #000000; stroke-width: 0.8"/>
      </g>
     </g>
     <g id="text_3">
      <!-- 5 -->
      <g transform="translate(211.986877 319.42775)scale(0.12 -0.12)">
       <use xlink:href="#SimSun-35"/>
      </g>
     </g>
    </g>
    <g id="xtick_4">
     <g id="line2d_4">
      <g>
       <use xlink:href="#mea2046db45" x="285.563953" y="307.584" style="stroke: #000000; stroke-width: 0.8"/>
      </g>
     </g>
     <g id="text_4">
      <!-- 10 -->
      <g transform="translate(279.563953 319.42775)scale(0.12 -0.12)">
       <defs>
        <path id="SimSun-31" d="M 750 3825 
L 1775 4325 
L 1875 4325 
L 1875 750 
Q 1875 400 1912 312 
Q 1950 225 2037 175 
Q 2125 125 2425 125 
L 2425 0 
L 825 0 
L 825 125 
Q 1125 125 1212 175 
Q 1300 225 1337 300 
Q 1375 375 1375 750 
L 1375 3025 
Q 1375 3500 1350 3625 
Q 1325 3725 1262 3775 
Q 1200 3825 1125 3825 
Q 1000 3825 800 3725 
L 750 3825 
z
" transform="scale(0.015625)"/>
       </defs>
       <use xlink:href="#SimSun-31"/>
       <use xlink:href="#SimSun-30" x="50"/>
      </g>
     </g>
    </g>
    <g id="xtick_5">
     <g id="line2d_5">
      <g>
       <use xlink:href="#mea2046db45" x="356.141028" y="307.584" style="stroke: #000000; stroke-width: 0.8"/>
      </g>
     </g>
     <g id="text_5">
      <!-- 15 -->
      <g transform="translate(350.141028 319.42775)scale(0.12 -0.12)">
       <use xlink:href="#SimSun-31"/>
       <use xlink:href="#SimSun-35" x="50"/>
      </g>
     </g>
    </g>
    <g id="text_6">
     <!-- Angle of Attack ($\mathrm{°}$) -->
     <g transform="translate(189.6 334.405875)scale(0.12 -0.12)">
      <defs>
       <path id="SimSun-41" d="M 2925 1425 
L 1300 1425 
L 1000 750 
Q 900 500 900 375 
Q 900 275 987 212 
Q 1075 150 1375 125 
L 1375 0 
L 50 0 
L 50 125 
Q 325 175 400 250 
Q 550 400 750 850 
L 2250 4325 
L 2350 4325 
L 3825 800 
Q 4000 375 4150 250 
Q 4300 125 4550 125 
L 4550 0 
L 2875 0 
L 2875 125 
Q 3125 125 3212 200 
Q 3300 275 3300 375 
Q 3300 525 3175 800 
L 2925 1425 
z
M 2850 1650 
L 2125 3375 
L 1375 1650 
L 2850 1650 
z
" transform="scale(0.015625)"/>
       <path id="SimSun-6e" d="M 1025 2350 
Q 1550 2950 2000 2950 
Q 2225 2950 2400 2837 
Q 2575 2725 2675 2450 
Q 2725 2250 2725 1875 
L 2725 650 
Q 2725 375 2775 275 
Q 2825 200 2900 162 
Q 2975 125 3175 125 
L 3175 0 
L 1750 0 
L 1750 125 
L 1825 125 
Q 2025 125 2100 175 
Q 2175 225 2200 350 
Q 2225 400 2225 650 
L 2225 1825 
Q 2225 2200 2125 2387 
Q 2025 2575 1775 2575 
Q 1400 2575 1025 2150 
L 1025 650 
Q 1025 350 1075 300 
Q 1125 200 1200 162 
Q 1275 125 1500 125 
L 1500 0 
L 75 0 
L 75 125 
L 150 125 
Q 375 125 450 225 
Q 525 325 525 650 
L 525 1700 
Q 525 2225 500 2337 
Q 475 2450 425 2487 
Q 375 2525 300 2525 
Q 200 2525 75 2475 
L 50 2600 
L 900 2950 
L 1025 2950 
L 1025 2350 
z
" transform="scale(0.015625)"/>
       <path id="SimSun-67" d="M 975 1050 
Q 700 1175 562 1400 
Q 425 1625 425 1900 
Q 425 2325 750 2637 
Q 1075 2950 1575 2950 
Q 1975 2950 2275 2750 
L 2875 2750 
Q 3025 2750 3037 2737 
Q 3050 2725 3075 2725 
Q 3075 2675 3075 2625 
Q 3075 2525 3075 2500 
Q 3050 2475 3037 2475 
Q 3025 2475 2875 2475 
L 2500 2475 
Q 2675 2250 2675 1900 
Q 2675 1500 2375 1212 
Q 2075 925 1550 925 
Q 1350 925 1125 975 
Q 975 875 925 787 
Q 875 700 875 625 
Q 875 575 937 525 
Q 1000 475 1150 450 
Q 1225 450 1575 425 
Q 2225 425 2400 375 
Q 2700 350 2875 175 
Q 3050 0 3050 -250 
Q 3050 -625 2725 -925 
Q 2225 -1375 1450 -1375 
Q 850 -1375 425 -1100 
Q 200 -950 200 -775 
Q 200 -700 225 -625 
Q 275 -525 450 -300 
Q 475 -275 775 25 
Q 600 125 537 200 
Q 475 275 475 375 
Q 475 475 562 625 
Q 650 775 975 1050 
z
M 1500 2800 
Q 1275 2800 1125 2612 
Q 975 2425 975 2050 
Q 975 1550 1175 1275 
Q 1350 1075 1600 1075 
Q 1825 1075 1975 1250 
Q 2125 1425 2125 1825 
Q 2125 2300 1925 2600 
Q 1750 2800 1500 2800 
z
M 925 0 
Q 800 -150 725 -287 
Q 650 -425 650 -550 
Q 650 -700 825 -800 
Q 1125 -1000 1725 -1000 
Q 2275 -1000 2550 -800 
Q 2825 -600 2825 -375 
Q 2825 -225 2650 -150 
Q 2500 -75 2025 -75 
Q 1325 -50 925 0 
z
" transform="scale(0.015625)"/>
       <path id="SimSun-6c" d="M 1175 4450 
L 1175 650 
Q 1175 375 1225 287 
Q 1275 200 1350 162 
Q 1425 125 1650 125 
L 1650 0 
L 250 0 
L 250 125 
Q 450 125 512 162 
Q 575 200 625 287 
Q 675 375 675 650 
L 675 3250 
Q 675 3725 650 3837 
Q 625 3950 575 3987 
Q 525 4025 450 4025 
Q 375 4025 250 3975 
L 200 4100 
L 1050 4450 
L 1175 4450 
z
" transform="scale(0.015625)"/>
       <path id="SimSun-65" d="M 675 1775 
Q 675 1150 1000 775 
Q 1300 425 1725 425 
Q 2000 425 2212 575 
Q 2425 725 2575 1100 
L 2650 1050 
Q 2600 625 2287 275 
Q 1975 -75 1500 -75 
Q 975 -75 612 325 
Q 250 725 250 1400 
Q 250 2125 625 2537 
Q 1000 2950 1550 2950 
Q 2050 2950 2350 2637 
Q 2650 2325 2650 1775 
L 675 1775 
z
M 675 1975 
L 2000 1975 
Q 2000 2250 1950 2350 
Q 1875 2525 1712 2625 
Q 1550 2725 1375 2725 
Q 1125 2725 925 2525 
Q 725 2325 675 1975 
z
" transform="scale(0.015625)"/>
       <path id="SimSun-20" transform="scale(0.015625)"/>
       <path id="SimSun-6f" d="M 1600 2950 
Q 2250 2950 2650 2450 
Q 2975 2025 2975 1475 
Q 2975 1100 2787 712 
Q 2600 325 2287 125 
Q 1975 -75 1575 -75 
Q 925 -75 550 425 
Q 225 875 225 1400 
Q 225 1800 412 2187 
Q 600 2575 925 2762 
Q 1250 2950 1600 2950 
z
M 1500 2750 
Q 1350 2750 1175 2650 
Q 1000 2550 900 2300 
Q 800 2050 800 1675 
Q 800 1050 1050 587 
Q 1300 125 1700 125 
Q 2000 125 2200 375 
Q 2400 625 2400 1250 
Q 2400 2000 2075 2450 
Q 1850 2750 1500 2750 
z
" transform="scale(0.015625)"/>
       <path id="SimSun-66" d="M 1325 2650 
L 1325 750 
Q 1325 350 1400 250 
Q 1525 125 1725 125 
L 1975 125 
L 1975 0 
L 275 0 
L 275 125 
L 400 125 
Q 525 125 625 187 
Q 725 250 762 350 
Q 800 450 800 750 
L 800 2650 
L 250 2650 
L 250 2875 
L 800 2875 
L 800 3050 
Q 800 3475 937 3775 
Q 1075 4075 1362 4262 
Q 1650 4450 2000 4450 
Q 2325 4450 2600 4225 
Q 2775 4075 2775 3900 
Q 2775 3825 2700 3737 
Q 2625 3650 2525 3650 
Q 2450 3650 2375 3700 
Q 2300 3750 2187 3925 
Q 2075 4100 1975 4150 
Q 1875 4225 1750 4225 
Q 1600 4225 1500 4137 
Q 1400 4050 1362 3900 
Q 1325 3750 1325 3075 
L 1325 2875 
L 2050 2875 
L 2050 2650 
L 1325 2650 
z
" transform="scale(0.015625)"/>
       <path id="SimSun-74" d="M 1025 3800 
L 1025 2875 
L 1700 2875 
L 1700 2650 
L 1025 2650 
L 1025 800 
Q 1025 500 1112 412 
Q 1200 325 1325 325 
Q 1425 325 1525 387 
Q 1625 450 1675 575 
L 1800 575 
Q 1675 275 1475 112 
Q 1275 -50 1075 -50 
Q 925 -50 787 37 
Q 650 125 587 262 
Q 525 400 525 725 
L 525 2650 
L 75 2650 
L 75 2750 
Q 225 2825 412 2987 
Q 600 3150 725 3375 
Q 800 3500 925 3800 
L 1025 3800 
z
" transform="scale(0.015625)"/>
       <path id="SimSun-61" d="M 1825 425 
Q 1375 75 1275 25 
Q 1100 -50 900 -50 
Q 625 -50 425 150 
Q 225 350 225 675 
Q 225 900 325 1050 
Q 450 1250 762 1437 
Q 1075 1625 1825 1900 
L 1825 2000 
Q 1825 2450 1687 2600 
Q 1550 2750 1300 2750 
Q 1100 2750 975 2650 
Q 850 2550 850 2400 
L 875 2225 
Q 875 2075 800 2000 
Q 725 1925 600 1925 
Q 475 1925 412 2012 
Q 350 2100 350 2225 
Q 350 2500 625 2725 
Q 900 2950 1375 2950 
Q 1775 2950 2000 2825 
Q 2200 2725 2275 2525 
Q 2350 2375 2350 1975 
L 2350 1000 
Q 2350 575 2362 487 
Q 2375 400 2412 375 
Q 2450 350 2500 350 
Q 2550 350 2575 350 
Q 2650 400 2825 600 
L 2825 425 
Q 2475 -50 2150 -50 
Q 2000 -50 1912 50 
Q 1825 150 1825 425 
z
M 1825 625 
L 1825 1700 
Q 1350 1525 1225 1450 
Q 975 1300 862 1150 
Q 750 1000 750 825 
Q 750 600 887 450 
Q 1025 300 1200 300 
Q 1425 300 1825 625 
z
" transform="scale(0.015625)"/>
       <path id="SimSun-63" d="M 2625 1100 
Q 2525 525 2187 225 
Q 1850 -75 1425 -75 
Q 950 -75 587 325 
Q 225 725 225 1425 
Q 225 2100 625 2525 
Q 1025 2950 1575 2950 
Q 2000 2950 2275 2725 
Q 2550 2500 2550 2250 
Q 2550 2150 2475 2075 
Q 2400 2000 2250 2000 
Q 2075 2000 1975 2125 
Q 1925 2175 1912 2362 
Q 1900 2550 1775 2650 
Q 1675 2750 1475 2750 
Q 1175 2750 975 2500 
Q 725 2200 725 1700 
Q 725 1175 975 787 
Q 1225 400 1650 400 
Q 1975 400 2200 600 
Q 2375 750 2550 1125 
L 2625 1100 
z
" transform="scale(0.015625)"/>
       <path id="SimSun-6b" d="M 1050 4450 
L 1050 1600 
L 1775 2250 
Q 2000 2475 2050 2525 
Q 2075 2575 2075 2600 
Q 2075 2675 2025 2712 
Q 1975 2750 1850 2775 
L 1850 2875 
L 3100 2875 
L 3100 2775 
Q 2825 2750 2662 2687 
Q 2500 2625 2300 2425 
L 1550 1750 
L 2300 825 
Q 2600 450 2700 325 
Q 2850 200 2975 150 
Q 3050 125 3250 125 
L 3250 0 
L 1850 0 
L 1850 125 
Q 1975 125 2012 150 
Q 2050 175 2050 250 
Q 2050 325 1925 475 
L 1050 1600 
L 1050 650 
Q 1050 375 1087 287 
Q 1125 200 1200 162 
Q 1275 125 1500 125 
L 1500 0 
L 50 0 
L 50 125 
Q 275 125 375 175 
Q 450 200 475 275 
Q 525 375 525 625 
L 525 3225 
Q 525 3725 500 3837 
Q 475 3950 425 4000 
Q 375 4050 300 4050 
Q 250 4050 100 3975 
L 50 4100 
L 900 4450 
L 1050 4450 
z
" transform="scale(0.015625)"/>
       <path id="SimSun-28" d="M 2000 -1250 
L 2000 -1375 
Q 1525 -1125 1200 -800 
Q 750 -350 512 262 
Q 275 875 275 1525 
Q 275 2500 750 3300 
Q 1225 4100 2000 4450 
L 2000 4325 
Q 1600 4100 1350 3737 
Q 1100 3375 987 2800 
Q 875 2225 875 1625 
Q 875 950 975 400 
Q 1050 -25 1162 -287 
Q 1275 -550 1475 -787 
Q 1675 -1025 2000 -1250 
z
" transform="scale(0.015625)"/>
       <path id="STIXGeneral-Regular-b0" d="M 2195 3411 
Q 2195 3027 1929 2761 
Q 1664 2496 1280 2496 
Q 890 2496 627 2761 
Q 365 3027 365 3418 
Q 365 3802 633 4064 
Q 902 4326 1293 4326 
Q 1664 4326 1929 4057 
Q 2195 3789 2195 3411 
z
M 1946 3418 
Q 1946 3699 1744 3904 
Q 1542 4109 1267 4109 
Q 1005 4109 809 3901 
Q 614 3693 614 3411 
Q 614 3123 809 2918 
Q 1005 2714 1280 2714 
Q 1555 2714 1750 2922 
Q 1946 3130 1946 3418 
z
" transform="scale(0.015625)"/>
       <path id="SimSun-29" d="M 150 4325 
L 150 4450 
Q 625 4200 925 3900 
Q 1375 3425 1625 2812 
Q 1875 2200 1875 1550 
Q 1875 575 1400 -225 
Q 925 -1025 150 -1375 
L 150 -1250 
Q 525 -1025 775 -662 
Q 1025 -300 1150 262 
Q 1275 825 1275 1450 
Q 1275 2125 1175 2675 
Q 1075 3100 962 3362 
Q 850 3625 662 3862 
Q 475 4100 150 4325 
z
" transform="scale(0.015625)"/>
      </defs>
      <use xlink:href="#SimSun-41" transform="translate(0 0.46875)"/>
      <use xlink:href="#SimSun-6e" transform="translate(72.265625 0.46875)"/>
      <use xlink:href="#SimSun-67" transform="translate(122.265625 0.46875)"/>
      <use xlink:href="#SimSun-6c" transform="translate(172.265625 0.46875)"/>
      <use xlink:href="#SimSun-65" transform="translate(200 0.46875)"/>
      <use xlink:href="#SimSun-20" transform="translate(244.53125 0.46875)"/>
      <use xlink:href="#SimSun-6f" transform="translate(269.53125 0.46875)"/>
      <use xlink:href="#SimSun-66" transform="translate(319.53125 0.46875)"/>
      <use xlink:href="#SimSun-20" transform="translate(352.734375 0.46875)"/>
      <use xlink:href="#SimSun-41" transform="translate(377.734375 0.46875)"/>
      <use xlink:href="#SimSun-74" transform="translate(450 0.46875)"/>
      <use xlink:href="#SimSun-74" transform="translate(477.734375 0.46875)"/>
      <use xlink:href="#SimSun-61" transform="translate(505.46875 0.46875)"/>
      <use xlink:href="#SimSun-63" transform="translate(550 0.46875)"/>
      <use xlink:href="#SimSun-6b" transform="translate(594.53125 0.46875)"/>
      <use xlink:href="#SimSun-20" transform="translate(644.53125 0.46875)"/>
      <use xlink:href="#SimSun-28" transform="translate(669.53125 0.46875)"/>
      <use xlink:href="#STIXGeneral-Regular-b0" transform="translate(702.734375 0.46875)"/>
      <use xlink:href="#SimSun-29" transform="translate(742.73436 0.46875)"/>
     </g>
    </g>
   </g>
   <g id="matplotlib.axis_2">
    <g id="ytick_1">
     <g id="line2d_6">
      <defs>
       <path id="m7b5f41037e" d="M 0 0 
L 3.5 0 
" style="stroke: #000000; stroke-width: 0.8"/>
      </defs>
      <g>
       <use xlink:href="#m7b5f41037e" x="57.6" y="283.855909" style="stroke: #000000; stroke-width: 0.8"/>
      </g>
     </g>
     <g id="text_7">
      <!-- 0.045 -->
      <g transform="translate(27.1 288.027784)scale(0.12 -0.12)">
       <defs>
        <path id="SimSun-2e" d="M 800 600 
Q 950 600 1050 500 
Q 1150 400 1150 250 
Q 1150 125 1050 25 
Q 950 -75 800 -75 
Q 650 -75 550 25 
Q 450 125 450 250 
Q 450 400 550 500 
Q 650 600 800 600 
z
" transform="scale(0.015625)"/>
        <path id="SimSun-34" d="M 2975 1575 
L 2975 1125 
L 2400 1125 
L 2400 0 
L 1900 0 
L 1900 1125 
L 100 1125 
L 100 1525 
L 2075 4325 
L 2400 4325 
L 2400 1575 
L 2975 1575 
z
M 1900 1575 
L 1900 3675 
L 400 1575 
L 1900 1575 
z
" transform="scale(0.015625)"/>
       </defs>
       <use xlink:href="#SimSun-30"/>
       <use xlink:href="#SimSun-2e" x="50"/>
       <use xlink:href="#SimSun-30" x="75"/>
       <use xlink:href="#SimSun-34" x="125"/>
       <use xlink:href="#SimSun-35" x="175"/>
      </g>
     </g>
    </g>
    <g id="ytick_2">
     <g id="line2d_7">
      <g>
       <use xlink:href="#m7b5f41037e" x="57.6" y="231.265524" style="stroke: #000000; stroke-width: 0.8"/>
      </g>
     </g>
     <g id="text_8">
      <!-- 0.050 -->
      <g transform="translate(27.1 235.437399)scale(0.12 -0.12)">
       <use xlink:href="#SimSun-30"/>
       <use xlink:href="#SimSun-2e" x="50"/>
       <use xlink:href="#SimSun-30" x="75"/>
       <use xlink:href="#SimSun-35" x="125"/>
       <use xlink:href="#SimSun-30" x="175"/>
      </g>
     </g>
    </g>
    <g id="ytick_3">
     <g id="line2d_8">
      <g>
       <use xlink:href="#m7b5f41037e" x="57.6" y="178.675139" style="stroke: #000000; stroke-width: 0.8"/>
      </g>
     </g>
     <g id="text_9">
      <!-- 0.055 -->
      <g transform="translate(27.1 182.847014)scale(0.12 -0.12)">
       <use xlink:href="#SimSun-30"/>
       <use xlink:href="#SimSun-2e" x="50"/>
       <use xlink:href="#SimSun-30" x="75"/>
       <use xlink:href="#SimSun-35" x="125"/>
       <use xlink:href="#SimSun-35" x="175"/>
      </g>
     </g>
    </g>
    <g id="ytick_4">
     <g id="line2d_9">
      <g>
       <use xlink:href="#m7b5f41037e" x="57.6" y="126.084754" style="stroke: #000000; stroke-width: 0.8"/>
      </g>
     </g>
     <g id="text_10">
      <!-- 0.060 -->
      <g transform="translate(27.1 130.256629)scale(0.12 -0.12)">
       <defs>
        <path id="SimSun-36" d="M 2875 4325 
L 2875 4200 
Q 2450 4175 2187 4050 
Q 1925 3925 1675 3675 
Q 1425 3425 1262 3112 
Q 1100 2800 975 2375 
Q 1425 2675 1875 2675 
Q 2325 2675 2637 2325 
Q 2950 1975 2950 1425 
Q 2950 900 2625 450 
Q 2250 -75 1600 -75 
Q 1175 -75 875 225 
Q 275 775 275 1675 
Q 275 2225 500 2737 
Q 725 3250 1150 3650 
Q 1575 4050 1962 4187 
Q 2350 4325 2700 4325 
L 2875 4325 
z
M 925 2150 
Q 875 1725 875 1450 
Q 875 1150 987 800 
Q 1100 450 1300 250 
Q 1475 100 1700 100 
Q 1975 100 2187 362 
Q 2400 625 2400 1100 
Q 2400 1625 2187 2012 
Q 1975 2400 1575 2400 
Q 1475 2400 1337 2350 
Q 1200 2300 925 2150 
z
" transform="scale(0.015625)"/>
       </defs>
       <use xlink:href="#SimSun-30"/>
       <use xlink:href="#SimSun-2e" x="50"/>
       <use xlink:href="#SimSun-30" x="75"/>
       <use xlink:href="#SimSun-36" x="125"/>
       <use xlink:href="#SimSun-30" x="175"/>
      </g>
     </g>
    </g>
    <g id="ytick_5">
     <g id="line2d_10">
      <g>
       <use xlink:href="#m7b5f41037e" x="57.6" y="73.494369" style="stroke: #000000; stroke-width: 0.8"/>
      </g>
     </g>
     <g id="text_11">
      <!-- 0.065 -->
      <g transform="translate(27.1 77.666244)scale(0.12 -0.12)">
       <use xlink:href="#SimSun-30"/>
       <use xlink:href="#SimSun-2e" x="50"/>
       <use xlink:href="#SimSun-30" x="75"/>
       <use xlink:href="#SimSun-36" x="125"/>
       <use xlink:href="#SimSun-35" x="175"/>
      </g>
     </g>
    </g>
    <g id="text_12">
     <!-- $\mathrm{C_M}$ -->
     <g transform="translate(20.521875 182.688)rotate(-90)scale(0.12 -0.12)">
      <defs>
       <path id="STIXGeneral-Regular-43" d="M 3930 838 
L 4051 723 
Q 3482 -90 2304 -90 
Q 1376 -90 794 480 
Q 179 1082 179 2080 
Q 179 3014 755 3661 
Q 1357 4326 2310 4326 
Q 2720 4326 3072 4230 
Q 3475 4115 3514 4115 
Q 3725 4115 3782 4326 
L 3910 4326 
L 3968 2874 
L 3821 2874 
Q 3718 3334 3488 3584 
Q 3034 4070 2458 4070 
Q 1747 4070 1334 3548 
Q 922 3027 922 2182 
Q 922 1152 1382 653 
Q 1811 192 2522 192 
Q 2944 192 3251 339 
Q 3558 486 3930 838 
z
" transform="scale(0.015625)"/>
       <path id="STIXGeneral-Regular-4d" d="M 5530 0 
L 3738 0 
L 3738 122 
Q 4115 147 4214 265 
Q 4314 384 4314 787 
L 4314 3661 
L 2682 0 
L 2592 0 
L 979 3514 
L 979 966 
Q 979 448 1088 294 
Q 1197 141 1574 122 
L 1574 0 
L 77 0 
L 77 122 
Q 358 141 480 205 
Q 602 269 650 432 
Q 698 595 698 966 
L 698 3514 
Q 698 3878 589 3984 
Q 480 4090 90 4115 
L 90 4237 
L 1357 4237 
L 2835 1024 
L 4250 4237 
L 5523 4237 
L 5523 4115 
Q 5178 4109 5072 3993 
Q 4966 3878 4966 3520 
L 4966 717 
Q 4966 378 5072 262 
Q 5178 147 5530 122 
L 5530 0 
z
" transform="scale(0.015625)"/>
      </defs>
      <use xlink:href="#STIXGeneral-Regular-43" transform="translate(0 0.40625)"/>
      <use xlink:href="#STIXGeneral-Regular-4d" transform="translate(68.274997 -13.09375)scale(0.7)"/>
     </g>
    </g>
   </g>
   <g id="line2d_11">
    <path d="M 73.832727 295.488 
L 77.112073 293.789902 
L 80.391419 292.074393 
L 83.670765 290.341472 
L 86.950111 288.591139 
L 90.229457 286.823396 
L 93.508803 285.03824 
L 96.788149 283.235605 
L 100.067495 281.415144 
L 103.346841 279.576809 
L 106.626187 277.720598 
L 109.905532 275.846858 
L 113.184878 273.963794 
L 116.464224 272.07489 
L 119.74357 270.180145 
L 123.022916 268.279561 
L 126.302262 266.370739 
L 129.581607 264.450606 
L 132.860953 262.519148 
L 136.140299 260.576366 
L 139.419645 258.62193 
L 142.69899 256.654624 
L 145.978336 254.674336 
L 149.257682 252.681065 
L 152.537028 250.674713 
L 155.816373 248.653947 
L 159.095719 246.618345 
L 162.375065 244.567908 
L 165.65441 242.502645 
L 168.933756 240.443198 
L 172.213101 238.40851 
L 175.492447 236.398581 
L 178.771793 234.413411 
L 182.051139 232.456005 
L 185.330484 230.534569 
L 188.60983 228.649568 
L 191.889176 226.801003 
L 195.168522 224.990519 
L 198.447868 223.232436 
L 201.727214 221.530076 
L 205.00656 219.883439 
L 208.285906 218.292735 
L 211.565252 216.779221 
L 214.844599 215.357035 
L 218.123945 214.02618 
L 221.403291 212.786653 
L 224.682638 211.641598 
L 227.961984 210.597394 
L 231.241331 209.654229 
L 234.520677 208.812101 
L 237.800024 208.078469 
L 241.079371 207.498062 
L 244.358718 207.07833 
L 247.638064 206.819275 
L 250.917411 206.720792 
L 254.196758 206.779301 
L 257.476105 206.993042 
L 260.755452 207.362013 
L 264.034798 207.886216 
L 267.314145 208.578969 
L 270.593492 209.460273 
L 273.872838 210.530328 
L 277.152184 211.789133 
L 280.431531 213.228318 
L 283.710877 214.811821 
L 286.990223 216.535503 
L 290.269569 218.399364 
L 293.548914 220.403778 
L 296.82826 222.555335 
L 300.107605 224.856447 
L 303.386951 227.307114 
L 306.666296 229.907336 
L 309.945641 232.412371 
L 313.224986 234.55576 
L 316.504332 236.337385 
L 319.783678 237.757246 
L 323.063025 238.846085 
L 326.342371 239.701291 
L 329.621718 240.33005 
L 332.901065 240.732362 
L 336.180412 240.874488 
L 339.459759 240.394597 
L 342.739105 239.194652 
L 346.018451 237.274654 
L 349.297797 234.633994 
L 352.577141 231.112912 
L 355.856482 226.587062 
L 359.13582 221.056444 
L 362.415156 214.521059 
L 365.694488 206.872668 
L 368.973813 197.85643 
L 372.25313 187.461674 
L 375.53244 175.6884 
L 378.811742 162.531061 
L 382.091031 147.949854 
L 385.370306 131.936925 
L 388.649568 114.492276 
L 391.928816 95.615905 
L 395.208051 75.307813 
L 398.487273 53.568 
" clip-path="url(#p26fe289d1e)" style="fill: none; stroke: #1f77b4; stroke-width: 1.5; stroke-linecap: square"/>
   </g>
   <g id="line2d_12">
    <path d="M 73.832727 293.671163 
L 77.112073 292.312201 
L 80.391419 290.911309 
L 83.670766 289.468486 
L 86.950112 287.983732 
L 90.229457 286.457047 
L 93.508803 284.888432 
L 96.788149 283.277927 
L 100.067495 281.625743 
L 103.346841 279.931908 
L 106.626187 278.196423 
L 109.905533 276.419841 
L 113.184878 274.615366 
L 116.464224 272.788603 
L 119.74357 270.939552 
L 123.022915 269.068213 
L 126.302261 267.171774 
L 129.581607 265.246628 
L 132.860952 263.292761 
L 136.140298 261.310172 
L 139.419643 259.299799 
L 142.698989 257.265099 
L 145.978334 255.206394 
L 149.25768 253.123684 
L 152.537025 251.016739 
L 155.81637 248.882444 
L 159.095716 246.719819 
L 162.375061 244.528863 
L 165.654406 242.309586 
L 168.933751 240.084699 
L 172.213097 237.875043 
L 175.492442 235.680618 
L 178.771787 233.501425 
L 182.051133 231.341926 
L 185.330478 229.214307 
L 188.609823 227.11926 
L 191.889169 225.056784 
L 195.168514 223.02781 
L 198.44786 221.040419 
L 201.727205 219.096487 
L 205.006551 217.196014 
L 208.285897 215.339202 
L 211.565243 213.546564 
L 214.844588 211.831744 
L 218.123934 210.194742 
L 221.40328 208.635558 
L 224.682626 207.164503 
L 227.961972 205.802523 
L 231.241318 204.550227 
L 234.520665 203.407615 
L 237.800011 202.380175 
L 241.079357 201.500825 
L 244.358704 200.775047 
L 247.638051 200.202842 
L 250.917397 199.784982 
L 254.196744 199.547948 
L 257.47609 199.504765 
L 260.755437 199.655434 
L 264.034784 199.999955 
L 267.31413 200.5521 
L 270.593477 201.332554 
L 273.872823 202.341523 
L 277.152169 203.579006 
L 280.431515 205.041165 
L 283.710861 206.711468 
L 286.990207 208.588016 
L 290.269552 210.670809 
L 293.548897 212.960702 
L 296.828242 215.472743 
L 300.107587 218.212437 
L 303.386931 221.179784 
L 306.666275 224.374785 
L 309.945619 227.575052 
L 313.224963 230.53846 
L 316.504307 233.264901 
L 319.783652 235.754374 
L 323.062998 238.032694 
L 326.342343 240.181641 
L 329.621689 242.207249 
L 332.901034 244.109519 
L 336.18038 245.851686 
L 339.459726 247.039462 
L 342.739073 247.566013 
L 346.01842 247.431337 
L 349.297767 246.634441 
L 352.577113 244.914169 
L 355.856458 242.06725 
L 359.1358 238.093685 
L 362.415141 232.993474 
L 365.694478 226.626812 
L 368.973807 218.664535 
L 372.253129 209.09286 
L 375.532442 197.911786 
L 378.811747 185.127612 
L 382.091038 170.785523 
L 385.370314 154.894432 
L 388.649576 137.454341 
L 391.928823 118.465248 
L 395.208055 97.927154 
L 398.487273 75.840059 
" clip-path="url(#p26fe289d1e)" style="fill: none; stroke: #ff7f0e; stroke-width: 1.5; stroke-linecap: square"/>
   </g>
   <g id="line2d_13">
    <path d="M 73.832727 292.617442 
L 77.112074 291.426838 
L 80.391421 290.180391 
L 83.670768 288.878102 
L 86.950115 287.519971 
L 90.229462 286.105998 
L 93.508808 284.636183 
L 96.788155 283.110975 
L 100.067502 281.532653 
L 103.346848 279.901536 
L 106.626195 278.217621 
L 109.905542 276.48149 
L 113.184888 274.706963 
L 116.464234 272.899903 
L 119.743581 271.060313 
L 123.022927 269.18819 
L 126.302274 267.280553 
L 129.58162 265.333569 
L 132.860966 263.347223 
L 136.140312 261.321517 
L 139.419659 259.258719 
L 142.699005 257.167196 
L 145.978351 255.047727 
L 149.257697 252.900314 
L 152.537043 250.724682 
L 155.816389 248.517157 
L 159.095735 246.276575 
L 162.375081 244.002939 
L 165.654427 241.696259 
L 168.933773 239.379399 
L 172.213119 237.073346 
L 175.492465 234.778098 
L 178.77181 232.493657 
L 182.051156 230.22419 
L 185.330502 227.981079 
L 188.609848 225.76497 
L 191.889194 223.575863 
L 195.16854 221.414559 
L 198.447887 219.288024 
L 201.727233 217.197872 
L 205.006579 215.144105 
L 208.285925 213.126913 
L 211.565271 211.165759 
L 214.844618 209.273587 
L 218.123964 207.450397 
L 221.403311 205.696189 
L 224.682657 204.024477 
L 227.962004 202.46271 
L 231.241351 201.011688 
L 234.520698 199.67141 
L 237.800045 198.446319 
L 241.079392 197.363059 
L 244.358739 196.42607 
L 247.638086 195.635352 
L 250.917433 194.992232 
L 254.196781 194.542255 
L 257.476128 194.307824 
L 260.755475 194.288939 
L 264.034823 194.4856 
L 267.31417 194.899909 
L 270.593517 195.535023 
L 273.872864 196.390975 
L 277.152211 197.467764 
L 280.431558 198.772962 
L 283.710905 200.339191 
L 286.990251 202.170197 
L 290.269598 204.265979 
L 293.548944 206.627099 
L 296.828289 209.263429 
L 300.107634 212.178584 
L 303.386979 215.372563 
L 306.666323 218.845365 
L 309.945667 222.373301 
L 313.225011 225.71284 
L 316.504355 228.863874 
L 319.7837 231.826403 
L 323.063046 234.628895 
L 326.342391 237.361534 
L 329.621736 240.030974 
L 332.901082 242.637215 
L 336.180428 245.140236 
L 339.459774 247.110852 
L 342.739121 248.432779 
L 346.018468 249.106018 
L 349.297817 249.12937 
L 352.577164 248.188887 
L 355.85651 246.040218 
L 359.135855 242.683362 
L 362.415198 238.118321 
L 365.694538 232.179782 
L 368.973869 224.478543 
L 372.253191 214.998311 
L 375.532505 203.739085 
L 378.81181 190.70079 
L 382.091098 175.882882 
L 385.370368 159.285253 
L 388.649621 140.907903 
L 391.928856 120.750832 
L 395.208073 98.814041 
L 398.487273 75.097529 
" clip-path="url(#p26fe289d1e)" style="fill: none; stroke: #2ca02c; stroke-width: 1.5; stroke-linecap: square"/>
   </g>
   <g id="line2d_14">
    <path d="M 73.832727 291.860712 
L 77.112075 290.779065 
L 80.391422 289.631927 
L 83.67077 288.4193 
L 86.950117 287.141183 
L 90.229464 285.797576 
L 93.508811 284.388479 
L 96.788158 282.914729 
L 100.067506 281.380563 
L 103.346853 279.786571 
L 106.6262 278.132753 
L 109.905547 276.4197 
L 113.184894 274.661473 
L 116.46424 272.864043 
L 119.743587 271.027409 
L 123.022934 269.151572 
L 126.302281 267.233479 
L 129.581628 265.269214 
L 132.860974 263.258761 
L 136.140321 261.20212 
L 139.419667 259.1025 
L 142.699014 256.971726 
L 145.97836 254.810901 
L 149.257707 252.620026 
L 152.537053 250.39873 
L 155.8164 248.142024 
L 159.095746 245.848334 
L 162.375092 243.51766 
L 165.654438 241.150012 
L 168.933785 238.768966 
L 172.213131 236.396154 
L 175.492477 234.031577 
L 178.771823 231.675236 
L 182.05117 229.330911 
L 185.330516 227.008925 
L 188.609862 224.709863 
L 191.889209 222.433727 
L 195.168555 220.181252 
L 198.447901 217.958846 
L 201.727248 215.767994 
L 205.006594 213.608696 
L 208.285941 211.481143 
L 211.565287 209.404546 
L 214.844634 207.391683 
L 218.123981 205.442555 
L 221.403328 203.557162 
L 224.682675 201.748422 
L 227.962021 200.042576 
L 231.241369 198.440386 
L 234.520716 196.941853 
L 237.800063 195.553074 
L 241.07941 194.310606 
L 244.358758 193.22054 
L 247.638105 192.282876 
L 250.917453 191.498776 
L 254.196801 190.908075 
L 257.476148 190.530368 
L 260.755496 190.365656 
L 264.034844 190.413938 
L 267.314192 190.683995 
L 270.593539 191.189015 
L 273.872887 191.929129 
L 277.152235 192.904336 
L 280.431582 194.122839 
L 283.710929 195.61997 
L 286.990276 197.399786 
L 290.269623 199.462287 
L 293.548969 201.808785 
L 296.828315 204.462348 
L 300.10766 207.431419 
L 303.387005 210.715998 
L 306.666349 214.316085 
L 309.945693 218.013069 
L 313.225038 221.568959 
L 316.504382 224.983648 
L 319.783727 228.257137 
L 323.063072 231.409909 
L 326.342417 234.506851 
L 329.621762 237.552751 
L 332.901108 240.547608 
L 336.180453 243.452692 
L 339.4598 245.852674 
L 342.739147 247.635025 
L 346.018494 248.799746 
L 349.297843 249.345417 
L 352.577191 248.899421 
L 355.856538 247.171758 
L 359.135883 244.162427 
L 362.415228 239.87143 
L 365.694569 234.125404 
L 368.973901 226.516208 
L 372.253224 217.026756 
L 375.532538 205.65705 
L 378.811841 192.408524 
L 382.091128 177.291485 
L 385.370395 160.307965 
L 388.649643 141.457964 
L 391.928872 120.741483 
L 395.208082 98.158521 
L 398.487273 73.709078 
" clip-path="url(#p26fe289d1e)" style="fill: none; stroke: #d62728; stroke-width: 1.5; stroke-linecap: square"/>
   </g>
   <g id="patch_3">
    <path d="M 57.6 307.584 
L 57.6 41.472 
" style="fill: none; stroke: #000000; stroke-width: 0.8; stroke-linejoin: miter; stroke-linecap: square"/>
   </g>
   <g id="patch_4">
    <path d="M 414.72 307.584 
L 414.72 41.472 
" style="fill: none; stroke: #000000; stroke-width: 0.8; stroke-linejoin: miter; stroke-linecap: square"/>
   </g>
   <g id="patch_5">
    <path d="M 57.6 307.584 
L 414.72 307.584 
" style="fill: none; stroke: #000000; stroke-width: 0.8; stroke-linejoin: miter; stroke-linecap: square"/>
   </g>
   <g id="patch_6">
    <path d="M 57.6 41.472 
L 414.72 41.472 
" style="fill: none; stroke: #000000; stroke-width: 0.8; stroke-linejoin: miter; stroke-linecap: square"/>
   </g>
   <g id="legend_1">
    <g id="line2d_15">
     <path d="M 68.4 56.472 
L 80.4 56.472 
L 92.4 56.472 
" style="fill: none; stroke: #1f77b4; stroke-width: 1.5; stroke-linecap: square"/>
    </g>
    <g id="text_13">
     <!-- Ma=0.2 -->
     <g transform="translate(102 60.672)scale(0.12 -0.12)">
      <defs>
       <path id="SimSun-4d" d="M 2625 0 
L 975 3575 
L 975 725 
Q 975 350 1075 250 
Q 1175 125 1425 125 
L 1575 125 
L 1575 0 
L 100 0 
L 100 125 
L 250 125 
Q 525 125 650 275 
Q 700 375 700 725 
L 700 3500 
Q 700 3775 650 3900 
Q 600 4000 487 4062 
Q 375 4125 100 4125 
L 100 4250 
L 1300 4250 
L 2850 925 
L 4350 4250 
L 5550 4250 
L 5550 4125 
L 5400 4125 
Q 5150 4125 5025 3950 
Q 4950 3850 4950 3500 
L 4950 725 
Q 4950 350 5050 250 
Q 5150 125 5400 125 
L 5550 125 
L 5550 0 
L 3750 0 
L 3750 125 
L 3900 125 
Q 4175 125 4300 275 
Q 4350 375 4350 725 
L 4350 3575 
L 2725 0 
L 2625 0 
z
" transform="scale(0.015625)"/>
       <path id="SimSun-3d" d="M 125 2750 
L 3500 2750 
L 3500 2500 
L 125 2500 
L 125 2750 
z
M 125 1750 
L 3500 1750 
L 3500 1475 
L 125 1475 
L 125 1750 
z
" transform="scale(0.015625)"/>
       <path id="SimSun-32" d="M 2925 825 
L 2650 0 
L 150 0 
L 150 125 
Q 1250 1125 1700 1762 
Q 2150 2400 2150 2925 
Q 2150 3325 1900 3587 
Q 1650 3850 1300 3850 
Q 1000 3850 750 3662 
Q 500 3475 375 3125 
L 250 3125 
Q 350 3700 662 4012 
Q 975 4325 1475 4325 
Q 1975 4325 2325 4000 
Q 2675 3675 2675 3225 
Q 2675 2900 2525 2575 
Q 2300 2075 1775 1500 
Q 1000 650 800 475 
L 1900 475 
Q 2250 475 2387 500 
Q 2525 525 2637 600 
Q 2750 675 2825 825 
L 2925 825 
z
" transform="scale(0.015625)"/>
      </defs>
      <use xlink:href="#SimSun-4d"/>
      <use xlink:href="#SimSun-61" x="89.0625"/>
      <use xlink:href="#SimSun-3d" x="133.59375"/>
      <use xlink:href="#SimSun-30" x="189.84375"/>
      <use xlink:href="#SimSun-2e" x="239.84375"/>
      <use xlink:href="#SimSun-32" x="264.84375"/>
     </g>
    </g>
    <g id="line2d_16">
     <path d="M 68.4 73.450125 
L 80.4 73.450125 
L 92.4 73.450125 
" style="fill: none; stroke: #ff7f0e; stroke-width: 1.5; stroke-linecap: square"/>
    </g>
    <g id="text_14">
     <!-- Ma=0.4 -->
     <g transform="translate(102 77.650125)scale(0.12 -0.12)">
      <use xlink:href="#SimSun-4d"/>
      <use xlink:href="#SimSun-61" x="89.0625"/>
      <use xlink:href="#SimSun-3d" x="133.59375"/>
      <use xlink:href="#SimSun-30" x="189.84375"/>
      <use xlink:href="#SimSun-2e" x="239.84375"/>
      <use xlink:href="#SimSun-34" x="264.84375"/>
     </g>
    </g>
    <g id="line2d_17">
     <path d="M 68.4 90.42825 
L 80.4 90.42825 
L 92.4 90.42825 
" style="fill: none; stroke: #2ca02c; stroke-width: 1.5; stroke-linecap: square"/>
    </g>
    <g id="text_15">
     <!-- Ma=0.6 -->
     <g transform="translate(102 94.62825)scale(0.12 -0.12)">
      <use xlink:href="#SimSun-4d"/>
      <use xlink:href="#SimSun-61" x="89.0625"/>
      <use xlink:href="#SimSun-3d" x="133.59375"/>
      <use xlink:href="#SimSun-30" x="189.84375"/>
      <use xlink:href="#SimSun-2e" x="239.84375"/>
      <use xlink:href="#SimSun-36" x="264.84375"/>
     </g>
    </g>
    <g id="line2d_18">
     <path d="M 68.4 107.406375 
L 80.4 107.406375 
L 92.4 107.406375 
" style="fill: none; stroke: #d62728; stroke-width: 1.5; stroke-linecap: square"/>
    </g>
    <g id="text_16">
     <!-- Ma=0.8 -->
     <g transform="translate(102 111.606375)scale(0.12 -0.12)">
      <defs>
       <path id="SimSun-38" d="M 1225 2125 
Q 725 2550 575 2800 
Q 425 3050 425 3325 
Q 425 3725 750 4025 
Q 1075 4325 1600 4325 
Q 2125 4325 2437 4050 
Q 2750 3775 2750 3425 
Q 2750 3175 2575 2925 
Q 2400 2675 1875 2350 
Q 2425 1925 2600 1675 
Q 2825 1350 2825 1000 
Q 2825 550 2487 237 
Q 2150 -75 1600 -75 
Q 1000 -75 650 300 
Q 400 600 400 975 
Q 400 1250 587 1525 
Q 775 1800 1225 2125 
z
M 1725 2475 
Q 2100 2800 2200 3000 
Q 2300 3200 2300 3450 
Q 2300 3775 2112 3962 
Q 1925 4150 1600 4150 
Q 1300 4150 1100 3962 
Q 900 3775 900 3525 
Q 900 3375 975 3212 
Q 1050 3050 1200 2900 
L 1725 2475 
z
M 1375 2025 
Q 1125 1800 1000 1537 
Q 875 1275 875 975 
Q 875 575 1087 337 
Q 1300 100 1650 100 
Q 1975 100 2187 287 
Q 2400 475 2400 750 
Q 2400 975 2275 1150 
Q 2050 1475 1375 2025 
z
" transform="scale(0.015625)"/>
      </defs>
      <use xlink:href="#SimSun-4d"/>
      <use xlink:href="#SimSun-61" x="89.0625"/>
      <use xlink:href="#SimSun-3d" x="133.59375"/>
      <use xlink:href="#SimSun-30" x="189.84375"/>
      <use xlink:href="#SimSun-2e" x="239.84375"/>
      <use xlink:href="#SimSun-38" x="264.84375"/>
     </g>
    </g>
   </g>
  </g>
 </g>
 <defs>
  <clipPath id="p26fe289d1e">
   <rect x="57.6" y="41.472" width="357.12" height="266.112"/>
  </clipPath>
 </defs>
</svg>
